<svg width="60" height="60" viewBox="0 0 60 60" fill="none" xmlns="http://www.w3.org/2000/svg">
<path d="M16.8242 30.4299C14.0469 30.4299 11.7844 30.4227 10.3885 30.4045C9.43858 30.39 8.79321 30.0417 8.51403 29.8567C8.42701 29.8277 8.34362 29.7878 8.26385 29.737C7.23052 29.084 5.37053 27.5965 4.50035 24.9698C3.59755 22.2379 4.08339 20.1881 4.65263 18.9473C4.81578 18.5918 5.10583 18.0476 5.5518 17.4889C7.28489 15.3193 9.97519 14.7098 11.5197 14.5466C11.6466 13.821 11.8352 13.1063 12.0817 12.4206C12.4117 11.5099 14.3007 6.86249 19.2498 4.86346C19.8879 4.60588 21.6174 4.00363 23.8363 4H23.8653C26.6136 4 28.7202 4.89974 29.7354 5.3351C30.3626 5.60357 30.7071 5.74869 31.1494 6.02079C32.3386 6.75365 33.042 7.62437 33.5569 8.25926C34.0028 8.81072 34.2675 9.12273 34.5177 9.12273C34.5793 9.10822 34.6736 9.03566 34.7461 8.97761C34.9274 8.83612 35.1739 8.64383 35.5728 8.42252C36.9143 7.67879 38.6111 7.38855 40.1122 7.64613C42.4326 8.04521 44.6262 9.88823 45.4492 12.1267C45.6668 12.7181 45.7756 13.3094 45.8734 13.8319C45.9315 14.1475 46.0076 14.5575 46.0874 14.757C46.4137 14.7497 47.2222 14.7389 49.1293 14.7643C51.7906 14.7969 54.6477 17.2023 55.6303 20.2389C55.953 21.2366 56.0653 22.3286 55.9638 23.4896C55.8478 24.7993 55.4852 25.9639 54.887 26.9507C53.3859 29.4322 50.7754 30.176 49.724 30.3792C49.6406 30.3937 49.5717 30.4009 49.481 30.4009C43.9699 30.3683 36.0405 30.3864 28.3721 30.4082C24.1916 30.4191 20.1381 30.4299 16.8205 30.4299H16.8242ZM9.00349 28.4853L9.15214 28.5144L9.29717 28.6377C9.29717 28.6377 9.69963 28.9425 10.4066 28.9533C13.4559 28.9969 20.7001 28.9787 28.3685 28.9606C36.0296 28.9425 43.9518 28.9207 49.4702 28.9533C50.3404 28.7792 52.4541 28.1697 53.647 26.2033C54.1292 25.4088 54.4229 24.451 54.5172 23.3662C54.5498 23.0071 54.6441 21.915 54.2489 20.6924C53.4584 18.2508 51.1525 16.2445 49.1076 16.2191C46.5225 16.1864 46.0148 16.2191 45.9931 16.2191H45.9423C44.8328 16.2191 44.6153 15.0472 44.4413 14.104C44.3543 13.636 44.2564 13.1099 44.0823 12.6346C43.4406 10.8859 41.6676 9.39483 39.862 9.08282C38.9447 8.92682 37.5198 9.00301 36.2689 9.69595C35.9716 9.86284 35.7903 10.0007 35.6308 10.1277C35.3589 10.3381 35.0507 10.5812 34.5105 10.5812H34.5032C33.5496 10.5812 32.9985 9.89912 32.4184 9.18078C31.9181 8.56402 31.3561 7.86744 30.3771 7.2652C30.0291 7.05114 29.7535 6.93142 29.1553 6.67746C28.2307 6.28201 26.3091 5.46208 23.8581 5.46208H23.8327C21.8675 5.46571 20.3484 5.9954 19.7864 6.22033C15.4102 7.98717 13.7314 12.1158 13.4377 12.9249C13.2057 13.5706 13.0317 14.2455 12.9193 14.9275C12.8286 15.4971 12.3645 15.9361 11.7953 15.9869C10.5082 16.1066 8.13332 16.5819 6.67578 18.4068C6.32046 18.8494 6.09203 19.2811 5.96151 19.5641C5.50104 20.5654 5.11308 22.2416 5.86723 24.5236C6.58513 26.6931 8.1188 27.9411 8.9926 28.4998L9.00349 28.4853Z" fill="white"/>
<path d="M21.2334 47.9858H17.5605V46.5346H20.6641V29.3198H22.1144V47.1187C22.1144 47.5976 21.7193 47.9894 21.2334 47.9894V47.9858Z" fill="white"/>
<path d="M15.0368 50.3295C13.2131 50.3295 11.7266 48.842 11.7266 47.0172C11.7266 45.1923 13.2095 43.7048 15.0368 43.7048C16.8642 43.7048 18.3471 45.1923 18.3471 47.0172C18.3471 48.842 16.8642 50.3295 15.0368 50.3295ZM15.0368 45.156C14.0108 45.156 13.1769 45.9904 13.1769 47.0172C13.1769 48.0439 14.0108 48.8783 15.0368 48.8783C16.0629 48.8783 16.8968 48.0439 16.8968 47.0172C16.8968 45.9904 16.0629 45.156 15.0368 45.156Z" fill="white"/>
<path d="M43.2021 47.543H39.6707C39.1885 47.543 38.7969 47.1548 38.7969 46.6796V29.3777H40.2472V46.0955H43.2058V47.5467L43.2021 47.543Z" fill="white"/>
<path d="M45.3952 50.1298C43.5715 50.1298 42.085 48.6423 42.085 46.8174C42.085 44.9925 43.5679 43.5051 45.3952 43.5051C47.2226 43.5051 48.7055 44.9925 48.7055 46.8174C48.7055 48.6423 47.2226 50.1298 45.3952 50.1298ZM45.3952 44.9562C44.3692 44.9562 43.5352 45.7907 43.5352 46.8174C43.5352 47.8441 44.3692 48.6786 45.3952 48.6786C46.4213 48.6786 47.2552 47.8441 47.2552 46.8174C47.2552 45.7907 46.4213 44.9562 45.3952 44.9562Z" fill="white"/>
<path d="M25.0628 36.4088H18.0869V34.9576H24.4392V29.3234H25.8895V35.5889C25.8895 36.0424 25.5196 36.4088 25.0628 36.4088Z" fill="white"/>
<path d="M15.8279 38.9957C14.0041 38.9957 12.5176 37.5082 12.5176 35.6833C12.5176 33.8584 14.0005 32.3709 15.8279 32.3709C17.6552 32.3709 19.1381 33.8584 19.1381 35.6833C19.1381 37.5082 17.6552 38.9957 15.8279 38.9957ZM15.8279 33.8221C14.8018 33.8221 13.9679 34.6566 13.9679 35.6833C13.9679 36.71 14.8018 37.5445 15.8279 37.5445C16.8539 37.5445 17.6879 36.71 17.6879 35.6833C17.6879 34.6566 16.8539 33.8221 15.8279 33.8221Z" fill="white"/>
<path d="M41.5441 36.8732H36.8126C36.3739 36.8732 36.0186 36.5031 36.0186 36.046V29.3197H37.4688V35.422H41.5441V36.8732Z" fill="white"/>
<path d="M43.9372 39.4601C42.1135 39.4601 40.627 37.9726 40.627 36.1478C40.627 34.3229 42.1099 32.8354 43.9372 32.8354C45.7646 32.8354 47.2475 34.3229 47.2475 36.1478C47.2475 37.9726 45.7646 39.4601 43.9372 39.4601ZM43.9372 34.2866C42.9112 34.2866 42.0772 35.121 42.0772 36.1478C42.0772 37.1745 42.9112 38.0089 43.9372 38.0089C44.9633 38.0089 45.7972 37.1745 45.7972 36.1478C45.7972 35.121 44.9633 34.2866 43.9372 34.2866Z" fill="white"/>
<path d="M30.0036 56C28.1799 56 26.6934 54.5125 26.6934 52.6876C26.6934 50.8628 28.1763 49.3753 30.0036 49.3753C31.831 49.3753 33.3139 50.8628 33.3139 52.6876C33.3139 54.5125 31.831 56 30.0036 56ZM30.0036 50.8265C28.9776 50.8265 28.1436 51.6609 28.1436 52.6876C28.1436 53.7144 28.9776 54.5488 30.0036 54.5488C31.0297 54.5488 31.8636 53.7144 31.8636 52.6876C31.8636 51.6609 31.0297 50.8265 30.0036 50.8265Z" fill="white"/>
<path d="M30.7286 29.853H29.2783V50.1008H30.7286V29.853Z" fill="white"/>
</svg>
