<svg width="61" height="61" viewBox="0 0 61 61" fill="none" xmlns="http://www.w3.org/2000/svg">
<path d="M55.4786 55.2162H5.38497C4.99008 55.2162 4.66699 54.8931 4.66699 54.4983C4.66699 54.1034 4.99008 53.7803 5.38497 53.7803H55.4786C55.8735 53.7803 56.1966 54.1034 56.1966 54.4983C56.1966 54.8931 55.8735 55.2162 55.4786 55.2162Z" fill="white"/>
<path d="M17.3829 55.2162H7.79785V43.2044C7.79785 41.8187 8.92508 40.6915 10.3108 40.6915H14.87C16.2557 40.6915 17.3829 41.8187 17.3829 43.2044V55.2162ZM9.23382 53.7803H15.947V43.2044C15.947 42.6121 15.4623 42.1274 14.87 42.1274H10.3108C9.71845 42.1274 9.23382 42.6121 9.23382 43.2044V53.7803Z" fill="white"/>
<path d="M29.2579 55.2163H19.6729V39.873C19.6729 38.4873 20.8001 37.36 22.1858 37.36H26.745C28.1307 37.36 29.2579 38.4873 29.2579 39.873V55.2163ZM21.1088 53.7803H27.8219V39.873C27.8219 39.2806 27.3373 38.796 26.745 38.796H22.1858C21.5935 38.796 21.1088 39.2806 21.1088 39.873V53.7803Z" fill="white"/>
<path d="M41.1222 55.2163H31.5371V34.9333C31.5371 33.5476 32.6643 32.4203 34.05 32.4203H38.6093C39.995 32.4203 41.1222 33.5476 41.1222 34.9333V55.2163ZM32.9731 53.7803H39.6862V34.9333C39.6862 34.3409 39.2016 33.8563 38.6093 33.8563H34.05C33.4577 33.8563 32.9731 34.3409 32.9731 34.9333V53.7803Z" fill="white"/>
<path d="M52.9513 55.2163H43.3662V25.919C43.3662 24.5333 44.4934 23.406 45.8791 23.406H50.4383C51.824 23.406 52.9513 24.5333 52.9513 25.919V55.2163ZM44.8022 53.7803H51.5153V25.919C51.5153 25.3266 51.0307 24.842 50.4383 24.842H45.8791C45.2868 24.842 44.8022 25.3266 44.8022 25.919V53.7803Z" fill="white"/>
<path d="M8.92828 34.6891C7.7472 34.6891 6.56252 34.6496 5.37785 34.5742C4.98296 34.5491 4.68141 34.208 4.70654 33.8095C4.73167 33.411 5.07271 33.1131 5.47119 33.1418C9.20829 33.3859 12.9346 33.2351 16.5568 32.6895C26.7307 31.1566 36.0249 26.5651 44.1812 19.0406C47.825 15.6769 51.0595 11.7711 53.7878 7.42367C53.9996 7.08622 54.4412 6.9857 54.7786 7.1975C55.1125 7.40931 55.2166 7.85087 55.0048 8.18832C52.2083 12.6398 48.8948 16.6462 45.1541 20.0961C36.7824 27.818 27.2332 32.5351 16.7686 34.1111C14.1947 34.4988 11.5705 34.6926 8.92469 34.6926L8.92828 34.6891Z" fill="white"/>
<path d="M56.6661 14.9732L55.2481 15.2173L54.0562 8.23851L47.1816 9.94013L46.8369 8.54365L55.2086 6.47586L56.6661 14.9732Z" fill="white"/>
</svg>
