<svg width="61" height="61" viewBox="0 0 61 61" fill="none" xmlns="http://www.w3.org/2000/svg">
<path d="M10.8976 35.2545L10.8287 35.2399C9.76662 35.0385 7.12787 34.2919 5.61274 31.7516C5.01467 30.7524 4.65579 29.5738 4.53617 28.2451C4.43468 27.0701 4.54706 25.9611 4.86966 24.9508C5.85558 21.8725 8.71183 19.4311 11.3724 19.3982C13.279 19.3762 14.0909 19.3836 14.4135 19.3909C14.4932 19.1896 14.5694 18.7723 14.6274 18.4502C14.7253 17.9195 14.834 17.3192 15.0515 16.7189C15.8706 14.4495 18.0672 12.5791 20.387 12.1765C21.8876 11.9166 23.5876 12.2094 24.9288 12.9634C25.3275 13.1867 25.574 13.3844 25.7552 13.5271C25.8314 13.5857 25.922 13.6589 25.9546 13.6735C26.2373 13.6735 26.4983 13.3588 26.9441 12.7987C27.4589 12.1545 28.1621 11.2687 29.351 10.5257C29.7932 10.2512 30.1375 10.1011 30.7646 9.83025C31.7795 9.39102 33.8855 8.47595 36.6366 8.47595H36.6656C38.8839 8.47961 40.6129 9.09088 41.2509 9.35442C46.2022 11.3785 48.0907 16.093 48.4205 17.0154C48.667 17.7145 48.8555 18.4356 48.9823 19.1713C50.6787 19.3543 53.2559 20.0021 54.9487 22.1544C55.3945 22.7217 55.6845 23.2708 55.8476 23.6295C56.4167 24.8886 56.9023 26.9676 55.9998 29.7312C55.1117 32.4471 53.2052 33.9624 52.1468 34.6213L52.0307 34.6945L50.309 35.0019L41.6713 35.0532H41.6677C41.269 35.0532 40.9464 34.7274 40.9428 34.3248C40.9428 33.9222 41.2617 33.5891 41.6641 33.5891L50.2365 33.5378L51.4979 33.3036C52.4041 32.7143 53.912 31.4551 54.6224 29.27C55.38 26.953 54.9885 25.2546 54.5282 24.2334C54.3977 23.9479 54.1693 23.5124 53.8141 23.0585C52.2591 21.0856 49.6964 20.6573 48.3082 20.5768L47.7065 20.5439L47.6303 19.9399C47.5252 19.1054 47.3331 18.2855 47.054 17.5058C46.7604 16.6859 45.0858 12.4986 40.7035 10.7051C40.1417 10.4745 38.6229 9.94006 36.6583 9.9364H36.633C34.1827 9.9364 32.258 10.7709 31.3337 11.1699C30.7356 11.4298 30.4601 11.5469 30.1121 11.7665C29.1335 12.3778 28.568 13.0842 28.0714 13.7101C27.4915 14.4385 26.9405 15.1267 25.9836 15.1303H25.98C25.4363 15.1303 25.1282 14.8851 24.8563 14.6728C24.6968 14.5483 24.5192 14.4056 24.2184 14.2372C22.9678 13.5344 21.5433 13.4539 20.6263 13.615C18.8212 13.9298 17.0487 15.4451 16.4071 17.2167C16.2331 17.6998 16.1352 18.2379 16.0482 18.7101C15.8743 19.6654 15.6568 20.855 14.5476 20.855H14.486C14.486 20.855 13.9713 20.822 11.3833 20.855C9.33892 20.8806 7.03363 22.9157 6.24344 25.3937C5.84835 26.6346 5.94259 27.7436 5.97521 28.106C6.07308 29.2114 6.36665 30.1814 6.84874 30.9866C8.05939 33.0144 10.2705 33.6257 11.0244 33.7758L25.1499 33.6916H25.1535C25.5522 33.6916 25.8748 34.0173 25.8785 34.42C25.8785 34.8226 25.5595 35.1557 25.1571 35.1557L10.8867 35.2435L10.8976 35.2545Z" fill="white"/>
<path d="M28.8792 53.2995C28.4805 53.2995 28.1543 52.9701 28.1543 52.5675V36.2756C28.1543 35.873 28.4805 35.5435 28.8792 35.5435C29.278 35.5435 29.6042 35.873 29.6042 36.2756V52.5675C29.6042 52.9701 29.278 53.2995 28.8792 53.2995Z" fill="white"/>
<path d="M22.9492 41.1255L24.0112 42.1211L28.8756 36.8357L33.7436 42.1211L34.8056 41.1255L28.8756 34.6834L22.9492 41.1255Z" fill="white"/>
<path d="M39.2279 52.1321C38.8292 52.1321 38.5029 51.8027 38.5029 51.4V34.9251C38.5029 34.5225 38.8292 34.1931 39.2279 34.1931C39.6266 34.1931 39.9528 34.5225 39.9528 34.9251V51.4C39.9528 51.8027 39.6266 52.1321 39.2279 52.1321Z" fill="white"/>
<path d="M45.1582 46.5463L44.0962 45.5471L39.2318 50.8362L34.3638 45.5471L33.3018 46.5463L39.2318 52.9847L45.1582 46.5463Z" fill="white"/>
</svg>
