<svg width="52" height="53" viewBox="0 0 52 53" fill="none" xmlns="http://www.w3.org/2000/svg">
<path d="M12.8242 26.9059C10.0469 26.9059 7.78442 26.8986 6.38852 26.8805C5.43858 26.866 4.79321 26.5177 4.51403 26.3327C4.42701 26.3036 4.34362 26.2637 4.26385 26.2129C3.23052 25.5599 1.37053 24.0724 0.500352 21.4458C-0.402452 18.7139 0.083388 16.6641 0.652626 15.4233C0.815784 15.0677 1.10583 14.5235 1.5518 13.9648C3.28489 11.7953 5.97519 11.1858 7.51974 11.0225C7.64664 10.2969 7.83518 9.58222 8.08172 8.89653C8.41167 7.9859 10.3007 3.33844 15.2498 1.33942C15.8879 1.08183 17.6174 0.47958 19.8363 0.475952H19.8653C22.6136 0.475952 24.7202 1.37569 25.7354 1.81105C26.3626 2.07953 26.7071 2.22465 27.1494 2.49675C28.3386 3.2296 29.042 4.10032 29.5569 4.73522C30.0028 5.28667 30.2675 5.59868 30.5177 5.59868C30.5793 5.58417 30.6736 5.51161 30.7461 5.45356C30.9274 5.31207 31.1739 5.11978 31.5728 4.89848C32.9143 4.15474 34.6111 3.8645 36.1122 4.12209C38.4326 4.52117 40.6262 6.36419 41.4492 8.60266C41.6668 9.19402 41.7756 9.78539 41.8734 10.3078C41.9315 10.6235 42.0076 11.0334 42.0874 11.233C42.4137 11.2257 43.2222 11.2148 45.1293 11.2402C47.7906 11.2729 50.6477 13.6782 51.6303 16.7149C51.953 17.7126 52.0653 18.8046 51.9638 19.9655C51.8478 21.2752 51.4852 22.4398 50.887 23.4266C49.3859 25.9082 46.7754 26.6519 45.724 26.8551C45.6406 26.8696 45.5717 26.8769 45.481 26.8769C39.9699 26.8442 32.0405 26.8624 24.3721 26.8841C20.1916 26.895 16.1381 26.9059 12.8205 26.9059H12.8242ZM5.00349 24.9613L5.15214 24.9903L5.29717 25.1137C5.29717 25.1137 5.69963 25.4184 6.40664 25.4293C9.45587 25.4728 16.7001 25.4547 24.3685 25.4366C32.0296 25.4184 39.9518 25.3966 45.4702 25.4293C46.3404 25.2552 48.4541 24.6457 49.647 22.6793C50.1292 21.8847 50.4229 20.927 50.5172 19.8422C50.5498 19.483 50.6441 18.391 50.2489 17.1684C49.4584 14.7267 47.1525 12.7204 45.1076 12.695C42.5225 12.6624 42.0148 12.695 41.9931 12.695H41.9423C40.8328 12.695 40.6153 11.5232 40.4413 10.5799C40.3543 10.1119 40.2564 9.58585 40.0823 9.11058C39.4406 7.36189 37.6676 5.87078 35.862 5.55877C34.9447 5.40277 33.5198 5.47896 32.2689 6.1719C31.9716 6.33879 31.7903 6.47666 31.6308 6.60363C31.3589 6.81406 31.0507 7.05713 30.5105 7.05713H30.5032C29.5496 7.05713 28.9985 6.37507 28.4184 5.65673C27.9181 5.03997 27.3561 4.34339 26.3771 3.74115C26.0291 3.5271 25.7535 3.40737 25.1553 3.15341C24.2307 2.75796 22.3091 1.93803 19.8581 1.93803H19.8327C17.8675 1.94166 16.3484 2.47135 15.7864 2.69628C11.4102 4.46312 9.73142 8.59178 9.43774 9.40082C9.20569 10.0466 9.03166 10.7214 8.91927 11.4035C8.82862 11.9731 8.36454 12.4121 7.7953 12.4628C6.50817 12.5826 4.13332 13.0578 2.67578 14.8827C2.32046 15.3253 2.09203 15.7571 1.96151 16.04C1.50104 17.0414 1.11308 18.7175 1.86723 20.9995C2.58513 23.1691 4.11881 24.4171 4.9926 24.9758L5.00349 24.9613Z" fill="white"/>
<path d="M17.2334 44.4618H13.5605V43.0106H16.6641V25.7957H18.1144V43.5947C18.1144 44.0736 17.7193 44.4654 17.2334 44.4654V44.4618Z" fill="white"/>
<path d="M11.0368 46.8055C9.21311 46.8055 7.72656 45.318 7.72656 43.4931C7.72656 41.6682 9.20948 40.1808 11.0368 40.1808C12.8642 40.1808 14.3471 41.6682 14.3471 43.4931C14.3471 45.318 12.8642 46.8055 11.0368 46.8055ZM11.0368 41.632C10.0108 41.632 9.17685 42.4664 9.17685 43.4931C9.17685 44.5198 10.0108 45.3543 11.0368 45.3543C12.0629 45.3543 12.8968 44.5198 12.8968 43.4931C12.8968 42.4664 12.0629 41.632 11.0368 41.632Z" fill="white"/>
<path d="M39.2021 44.019H35.6707C35.1885 44.019 34.7969 43.6308 34.7969 43.1555V25.8536H36.2472V42.5714H39.2058V44.0226L39.2021 44.019Z" fill="white"/>
<path d="M41.3952 46.6057C39.5715 46.6057 38.085 45.1182 38.085 43.2934C38.085 41.4685 39.5679 39.981 41.3952 39.981C43.2226 39.981 44.7055 41.4685 44.7055 43.2934C44.7055 45.1182 43.2226 46.6057 41.3952 46.6057ZM41.3952 41.4322C40.3692 41.4322 39.5352 42.2666 39.5352 43.2934C39.5352 44.3201 40.3692 45.1545 41.3952 45.1545C42.4213 45.1545 43.2552 44.3201 43.2552 43.2934C43.2552 42.2666 42.4213 41.4322 41.3952 41.4322Z" fill="white"/>
<path d="M21.0628 32.8848H14.0869V31.4336H20.4392V25.7993H21.8895V32.0649C21.8895 32.5184 21.5196 32.8848 21.0628 32.8848Z" fill="white"/>
<path d="M11.8279 35.4716C10.0041 35.4716 8.51758 33.9841 8.51758 32.1592C8.51758 30.3344 10.0005 28.8469 11.8279 28.8469C13.6552 28.8469 15.1381 30.3344 15.1381 32.1592C15.1381 33.9841 13.6552 35.4716 11.8279 35.4716V35.4716ZM11.8279 30.2981C10.8018 30.2981 9.96787 31.1325 9.96787 32.1592C9.96787 33.186 10.8018 34.0204 11.8279 34.0204C12.8539 34.0204 13.6879 33.186 13.6879 32.1592C13.6879 31.1325 12.8539 30.2981 11.8279 30.2981V30.2981Z" fill="white"/>
<path d="M37.5442 33.3491H32.8126C32.3739 33.3491 32.0186 32.9791 32.0186 32.5219V25.7956H33.4688V31.8979H37.5442V33.3491Z" fill="white"/>
<path d="M39.9372 35.9361C38.1135 35.9361 36.627 34.4486 36.627 32.6237C36.627 30.7988 38.1099 29.3114 39.9372 29.3114C41.7646 29.3114 43.2475 30.7988 43.2475 32.6237C43.2475 34.4486 41.7646 35.9361 39.9372 35.9361ZM39.9372 30.7626C38.9112 30.7626 38.0772 31.597 38.0772 32.6237C38.0772 33.6504 38.9112 34.4849 39.9372 34.4849C40.9633 34.4849 41.7972 33.6504 41.7972 32.6237C41.7972 31.597 40.9633 30.7626 39.9372 30.7626Z" fill="white"/>
<path d="M26.0036 52.4759C24.1799 52.4759 22.6934 50.9885 22.6934 49.1636C22.6934 47.3387 24.1763 45.8512 26.0036 45.8512C27.831 45.8512 29.3139 47.3387 29.3139 49.1636C29.3139 50.9885 27.831 52.4759 26.0036 52.4759ZM26.0036 47.3024C24.9776 47.3024 24.1436 48.1369 24.1436 49.1636C24.1436 50.1903 24.9776 51.0248 26.0036 51.0248C27.0297 51.0248 27.8636 50.1903 27.8636 49.1636C27.8636 48.1369 27.0297 47.3024 26.0036 47.3024Z" fill="white"/>
<path d="M26.7286 26.3289H25.2783V46.5768H26.7286V26.3289Z" fill="white"/>
</svg>
