<svg width="40" height="40" viewBox="0 0 40 40" fill="none" xmlns="http://www.w3.org/2000/svg">
<path d="M5.00024 9.16602H35.0002C35.4602 9.16602 35.8532 9.32852 36.179 9.65352C36.5048 9.97852 36.6673 10.3718 36.6665 10.8335C36.6657 11.2952 36.5032 11.6877 36.179 12.011C35.8548 12.3343 35.4619 12.4973 35.0002 12.4998H5.00024C4.54024 12.4998 4.14732 12.3373 3.82149 12.0123C3.49565 11.6873 3.33315 11.2943 3.33399 10.8335C3.33482 10.3727 3.49732 9.97977 3.82149 9.65477C4.14565 9.32977 4.53857 9.16727 5.00024 9.16727V9.16602ZM5.00024 29.166H35.0002C35.4602 29.166 35.8532 29.3285 36.179 29.6535C36.5048 29.9785 36.6673 30.3719 36.6665 30.8335C36.6657 31.2952 36.5032 31.6877 36.179 32.011C35.8548 32.3344 35.4619 32.4973 35.0002 32.4998H5.00024C4.54024 32.4998 4.14732 32.3373 3.82149 32.0123C3.49565 31.6873 3.33315 31.2944 3.33399 30.8335C3.33482 30.3727 3.49732 29.9798 3.82149 29.6548C4.14565 29.3298 4.53857 29.1673 5.00024 29.1673V29.166ZM5.00024 19.166H35.0002C35.4602 19.166 35.8532 19.3285 36.179 19.6535C36.5048 19.9785 36.6673 20.3719 36.6665 20.8335C36.6657 21.2952 36.5032 21.6877 36.179 22.011C35.8548 22.3343 35.4619 22.4973 35.0002 22.4998H5.00024C4.54024 22.4998 4.14732 22.3373 3.82149 22.0123C3.49565 21.6873 3.33315 21.2943 3.33399 20.8335C3.33482 20.3727 3.49732 19.9798 3.82149 19.6548C4.14565 19.3298 4.53857 19.1673 5.00024 19.1673V19.166Z" fill="#ffff"/>
</svg>
