<svg width="138" height="49" viewBox="0 0 138 49" fill="none" xmlns="http://www.w3.org/2000/svg">
<path d="M124.16 41.0513C121.414 41.0551 118.731 40.251 116.461 38.7442C114.174 37.233 112.396 35.0955 111.352 32.6008C110.307 30.0868 110.04 27.3296 110.582 24.669C111.107 22.0154 112.427 19.5732 114.376 17.6519C115.818 16.2244 117.57 15.1299 119.502 14.449C121.435 13.7681 123.499 13.5179 125.544 13.7169C127.589 13.916 129.562 14.5591 131.318 15.5991C133.075 16.6391 134.57 18.0496 135.694 19.727C137.459 22.3627 138.248 25.5065 137.932 28.639C137.617 31.7716 136.215 34.7054 133.959 36.9558C132.685 38.2379 131.163 39.2603 129.481 39.9634C127.799 40.6666 125.99 41.0364 124.16 41.0513ZM124.16 19.0854C122.507 19.0845 120.89 19.5594 119.513 20.4506C118.134 21.3656 117.063 22.6574 116.433 24.1639C115.801 25.674 115.636 27.3313 115.956 28.9321C116.277 30.5329 117.071 32.0073 118.239 33.1742C119.111 34.036 120.169 34.6965 121.337 35.1073C122.504 35.5182 123.751 35.6689 124.986 35.5485C126.221 35.428 127.413 35.0395 128.474 34.4113C129.534 33.7831 130.438 32.9312 131.117 31.9182C132.188 30.3237 132.668 28.4199 132.477 26.5227C132.286 24.6255 131.436 22.849 130.067 21.4881C129.299 20.7183 128.38 20.1056 127.366 19.686C126.352 19.2665 125.262 19.0483 124.16 19.0444V19.0854Z" fill="white"/>
<path d="M137.948 28.5325H132.447V48.4643H137.948V28.5325Z" fill="white"/>
<path d="M137.948 0V20.5735C136.718 18.0888 134.816 15.9788 132.447 14.471V0H137.948Z" fill="#4EBB87"/>
<path d="M0 0H5.71109V36.3141H25.5319V40.9558H0V0Z" fill="white"/>
<path d="M52.2676 34.5666C50.9798 37.0649 44.2189 42.2936 36.2961 41.0513C34.3434 40.7716 32.4707 40.1024 30.795 39.0854C29.1432 38.031 27.752 36.6321 26.7217 34.9898C25.5585 33.5436 24.701 31.8868 24.1988 30.1152C23.6966 28.3436 23.5597 26.4925 23.7961 24.6689C24.356 21.2013 26.5957 18.1297 30.3611 15.4812C32.5309 13.8531 35.0879 12.787 37.7939 12.3822C40.121 12.0708 42.49 12.4614 44.5828 13.5017C46.775 14.581 48.6526 16.1821 50.0419 18.157L51.6517 20.4368L32.4047 33.7475C33.0821 34.6424 33.9759 35.36 35.0066 35.8364C36.0372 36.3128 37.1727 36.5332 38.3118 36.4779C41.1053 36.2362 43.7568 35.1694 45.9126 33.4198C49.804 30.4027 51.7496 26.4027 52.0576 26.5939C52.1416 26.5939 52.0576 26.9352 51.9456 27.1809L55.571 30.1297C54.3325 31.3305 53.2935 32.7123 52.4915 34.2253C52.3656 34.3618 52.2956 34.4983 52.2676 34.5666ZM45.0307 20.2457C44.4082 19.3563 43.6025 18.6031 42.6651 18.0341C41.7232 17.4738 40.6677 17.1197 39.5716 16.9966C37.1428 16.8474 34.745 17.5928 32.8527 19.0853C30.8136 20.3234 29.3403 22.2784 28.7373 24.5461C28.5063 25.5852 28.5063 26.6605 28.7373 27.6997C28.9923 28.7406 29.4692 29.7174 30.1371 30.5666L45.0307 20.2457Z" fill="white"/>
<path d="M60.7643 41.379C57.9425 41.5053 55.1659 40.6542 52.9256 38.9762C51.9664 38.1558 51.2072 37.1368 50.7035 35.9936C50.1998 34.8505 49.9642 33.612 50.014 32.3687C49.9385 31.1374 50.149 29.9054 50.6299 28.7646C51.1147 27.603 51.861 26.5626 52.8136 25.7202C55.1102 23.9849 57.9768 23.1258 60.8763 23.3038C64.1564 23.1912 67.4066 23.946 70.2828 25.4881V24.1229C70.3514 23.2617 70.2096 22.3968 69.8689 21.5994C69.5283 20.802 68.9985 20.0948 68.3231 19.5359C66.5463 18.3662 64.4118 17.8265 62.2761 18.0069C60.6571 17.9925 59.0417 18.1574 57.4608 18.4983C56.0132 18.7459 54.6026 19.1678 53.2615 19.7543V15.2219C54.656 14.6337 56.1247 14.2297 57.6288 14.0205C59.3631 13.6934 61.1255 13.5288 62.892 13.529C67.3293 13.529 70.5907 14.4847 72.6904 16.4232C73.7943 17.4272 74.655 18.6584 75.21 20.0273C75.7721 21.3964 76.0206 22.8688 75.9379 24.3413V40.5598H70.6187V37.611C69.4508 38.848 68.0168 39.8177 66.4194 40.4506C64.608 41.0929 62.6915 41.4075 60.7643 41.379ZM62.1641 37.1742C63.8664 37.2019 65.5524 36.8469 67.0913 36.1366C68.455 35.5231 69.5897 34.5119 70.3388 33.2424V29.6383C67.9192 28.1252 65.0938 27.3461 62.2201 27.3994C60.4979 27.2733 58.7822 27.7157 57.3489 28.6554C56.7858 29.1044 56.3437 29.6809 56.0611 30.3345C55.7823 30.9954 55.6672 31.711 55.7251 32.4233C55.7251 35.5996 57.8714 37.1833 62.1641 37.1742Z" fill="white"/>
<path d="M79.7871 14.4846H85.2742V18.2525C86.4772 16.7053 88.0814 15.499 89.9215 14.7576C91.7652 14.0082 93.7473 13.6364 95.7446 13.6655C99.328 13.6655 102.002 14.5665 103.751 16.3958C105.586 18.4647 106.529 21.1455 106.383 23.8771V40.6963H100.784V24.4778C100.784 20.2184 98.6934 18.0887 94.5127 18.0887C92.7501 18.077 91.0143 18.5097 89.4736 19.3447C87.845 20.231 86.4764 21.5094 85.4982 23.058V40.6963H79.8991L79.7871 14.4846Z" fill="white"/>
</svg>
