<svg width="61" height="61" viewBox="0 0 61 61" fill="none" xmlns="http://www.w3.org/2000/svg">
<path d="M30.5433 48.4785H30.515C30.0762 48.4714 29.648 48.4467 29.2233 48.4113C28.466 48.344 27.6945 48.2308 26.9903 48.0786L26.6151 47.9972L25.4898 45.0493C25.4084 45.021 25.327 44.9892 25.2456 44.9608L22.4852 46.5003L22.1455 46.3198C21.1157 45.7748 20.1248 45.1201 19.1976 44.3663C18.5641 43.8532 18.2492 43.0321 18.3801 42.2253L18.6809 40.3638C18.6243 40.2966 18.5677 40.2329 18.5146 40.1656L15.3579 40.1232L15.1526 39.7976C14.3599 38.5377 13.7017 37.1292 13.2452 35.7243L13.1284 35.3598L15.1208 32.9073C15.1066 32.8224 15.0889 32.7339 15.0748 32.649L13.454 31.6793C12.7533 31.2618 12.3251 30.4938 12.3392 29.6728C12.3463 29.241 12.3711 28.8093 12.4064 28.3917C12.4454 27.9635 12.4949 27.5353 12.5622 27.1177C12.6896 26.3073 13.2416 25.6207 14.006 25.3306L15.7684 24.6582C15.7967 24.5768 15.8286 24.4954 15.8569 24.414L14.3175 21.6536L14.4979 21.3139C15.1916 20.008 16.0834 18.734 17.0813 17.6334L17.3397 17.3468L20.4575 17.8493C20.5212 17.7927 20.5884 17.7396 20.6556 17.683L20.6981 14.5227L21.0237 14.3175C22.2835 13.5283 23.692 12.8665 25.0934 12.41L25.4615 12.2897L27.9139 14.2821C28.0024 14.2679 28.0873 14.2502 28.1723 14.2361L29.1419 12.6153C29.5524 11.9287 30.3062 11.5005 31.106 11.5005H31.1662C31.5767 11.5076 32.0049 11.5324 32.4296 11.5678C33.1763 11.6315 33.9478 11.7482 34.6591 11.9004L35.0342 11.9818L36.1631 14.9297C36.2445 14.958 36.3259 14.9899 36.4108 15.0182L39.1712 13.4788L39.5109 13.6593C40.8168 14.3493 42.0872 15.2411 43.1914 16.2391L43.478 16.4975L42.9755 19.6152C43.0321 19.6789 43.0852 19.7462 43.1418 19.8134L46.2985 19.8559L46.5038 20.1815C47.3 21.4484 47.9583 22.8569 48.4112 24.2547L48.528 24.6192L46.5356 27.0717C46.5498 27.1566 46.5675 27.2416 46.5816 27.33L49.2889 28.9473L49.3031 29.3295C49.3314 30.0444 49.3137 30.8265 49.2464 31.5873C49.1827 32.334 49.0659 33.1055 48.9138 33.8168L48.8324 34.192L45.8845 35.3209C45.8562 35.4023 45.8243 35.4872 45.796 35.5651L47.3354 38.3254L47.1549 38.6651C46.6064 39.6985 45.9482 40.6894 45.2015 41.6095C44.7662 42.1474 44.1186 42.4588 43.4249 42.4588C43.3046 42.4588 43.1808 42.4482 43.064 42.4305L41.199 42.1297C41.1317 42.1863 41.068 42.2394 41.0008 42.296L40.9583 45.4528L40.6327 45.658C39.3729 46.4507 37.9644 47.109 36.5595 47.5655L36.1914 47.6858L33.739 45.6934C33.6505 45.7111 33.562 45.7253 33.4806 45.7394L32.511 47.3602C32.1004 48.0468 31.3467 48.475 30.5433 48.475V48.4785ZM27.6627 46.7692C28.2041 46.8719 28.781 46.9497 29.3472 46.9993C29.74 47.0311 30.1364 47.0523 30.5292 47.0594L30.5433 47.7672V47.0594C30.8512 47.0594 31.1379 46.8966 31.2936 46.6347L32.3906 44.7981C32.5251 44.5751 32.7445 44.4229 32.9993 44.384C33.2364 44.3486 33.47 44.3061 33.7496 44.2531L33.8841 44.2389C34.0787 44.2389 34.2733 44.3061 34.429 44.4335L36.4816 46.1004C37.5362 45.7288 38.5837 45.2404 39.5498 44.6636L39.5852 42.0271C39.5888 41.7652 39.7056 41.5246 39.9037 41.3618C40.0948 41.2096 40.2788 41.0539 40.4593 40.8946C40.654 40.7212 40.9194 40.6505 41.1848 40.6965L43.2834 41.0327C43.5948 41.0822 43.9027 40.9619 44.0973 40.7212C44.706 39.971 45.2475 39.1712 45.7181 38.3396L44.4335 36.0357C44.3061 35.8022 44.2849 35.5332 44.3804 35.2961C44.4654 35.0767 44.5503 34.8467 44.6282 34.6166C44.706 34.376 44.8936 34.1849 45.1413 34.0893L47.6044 33.148C47.707 32.603 47.7884 32.0262 47.8344 31.467C47.8839 30.8972 47.9052 30.3169 47.8981 29.7683L45.6367 28.4165C45.4138 28.282 45.2616 28.0626 45.2227 27.8113C45.1873 27.5636 45.1448 27.323 45.0953 27.0929C45.0457 26.8346 45.113 26.5762 45.2758 26.3745L46.9391 24.329C46.571 23.2815 46.0826 22.234 45.5023 21.2608L42.8693 21.2254C42.6074 21.2254 42.3668 21.1051 42.204 20.9069C42.0518 20.7158 41.8926 20.5283 41.7369 20.3513C41.567 20.1567 41.4927 19.8948 41.5352 19.6365L41.9527 17.0389C41.0999 16.3028 40.155 15.641 39.1782 15.0925L36.8744 16.3771C36.6409 16.5045 36.3754 16.5222 36.1383 16.4337C35.9083 16.3417 35.6783 16.2603 35.4553 16.186C35.2147 16.1082 35.0165 15.9171 34.9245 15.6693L33.9831 13.2098C33.4346 13.1072 32.8613 13.0293 32.2986 12.9798C31.9093 12.9444 31.5094 12.9267 31.1166 12.9196C30.791 12.9196 30.5044 13.0824 30.3487 13.3443L29.2516 15.181C29.1172 15.4075 28.8942 15.5596 28.6359 15.595C28.3987 15.6304 28.1581 15.6729 27.8962 15.726L27.7617 15.7401C27.5636 15.7401 27.3689 15.6693 27.2132 15.5419L25.1642 13.8787C24.1096 14.2502 23.0621 14.7386 22.096 15.3155L22.0606 17.9519C22.0606 18.2103 21.9403 18.458 21.7385 18.6173C21.5474 18.7694 21.3599 18.9287 21.19 19.0808C20.9989 19.2507 20.7406 19.325 20.4787 19.2826L17.8741 18.865C17.1415 19.7143 16.4762 20.6627 15.9277 21.6395L17.2123 23.9433C17.3397 24.1698 17.3609 24.4387 17.2654 24.6794C17.1804 24.8988 17.0955 25.1288 17.0176 25.3624C16.9362 25.6066 16.7487 25.7977 16.501 25.8932L14.505 26.6576C14.2148 26.7673 14.0025 27.0292 13.9529 27.3406C13.8928 27.7264 13.8432 28.1227 13.8079 28.5156C13.776 28.9013 13.7548 29.3012 13.7477 29.7011C13.7406 30.0125 13.9034 30.3098 14.1724 30.469L16.009 31.5661C16.2355 31.7006 16.3877 31.9235 16.4231 32.1819C16.4585 32.4119 16.501 32.6525 16.547 32.8897C16.5965 33.1409 16.5328 33.3993 16.37 33.6045L14.7032 35.6571C15.0712 36.7117 15.5631 37.7592 16.14 38.7253L18.7765 38.7607C19.0348 38.7607 19.279 38.881 19.4418 39.0827C19.594 39.2738 19.7497 39.4578 19.9089 39.6383C20.0788 39.8294 20.1531 40.0913 20.1106 40.3497L19.7709 42.4624C19.7214 42.7703 19.8417 43.0817 20.0823 43.2763C20.8361 43.8885 21.6359 44.4335 22.4675 44.8936L24.7714 43.609C25.0014 43.4816 25.281 43.4604 25.5145 43.5594C25.7269 43.6444 25.9569 43.7258 26.1834 43.8036C26.4311 43.8886 26.6258 44.0761 26.7178 44.3238L27.6556 46.7798L27.6627 46.7692ZM24.9943 44.8653C24.9943 44.8653 25.0049 44.8688 25.012 44.8724C25.0049 44.8724 25.0014 44.8688 24.9943 44.8653ZM25.4013 44.8157C25.4013 44.8157 25.4013 44.8158 25.4013 44.8193V44.8157ZM40.9477 42.0943C40.9477 42.0943 40.9619 42.0943 40.9654 42.0943H40.9477ZM18.7623 40.1585C18.7623 40.1585 18.7659 40.1585 18.7694 40.1585H18.7623ZM45.9729 35.059C45.9729 35.059 45.9729 35.0625 45.9729 35.0661C45.9729 35.0661 45.9729 35.0625 45.9729 35.059ZM15.2871 32.7658H15.2942H15.2871ZM15.0323 32.373V32.38C15.0323 32.38 15.0323 32.3765 15.0323 32.373ZM35.9012 14.8342C35.9012 14.8342 35.9048 14.8342 35.9083 14.8342C35.9083 14.8342 35.9048 14.8342 35.9012 14.8342ZM28.4306 14.183C28.4306 14.183 28.4235 14.183 28.42 14.183C28.42 14.183 28.4271 14.183 28.4306 14.183Z" fill="white"/>
<path d="M30.5 40.3497C24.9686 40.3497 20.4707 35.8482 20.4707 30.3204C20.4707 24.7927 24.9722 20.2912 30.5 20.2912C36.0277 20.2912 40.5292 24.7927 40.5292 30.3204C40.5292 35.8482 36.0277 40.3497 30.5 40.3497ZM30.5 21.7032C25.7507 21.7032 21.8863 25.5677 21.8863 30.3169C21.8863 35.0661 25.7507 38.9306 30.5 38.9306C35.2492 38.9306 39.1136 35.0661 39.1136 30.3169C39.1136 25.5677 35.2492 21.7032 30.5 21.7032Z" fill="white"/>
<path d="M50.0839 13.394L49.0824 14.3955C55.7072 22.043 57.7032 33.7993 50.6643 45.2795C49.3407 47.4382 47.5217 49.2607 45.3701 50.5949C33.9288 57.6621 22.1797 55.7157 14.5109 49.1369L13.5094 50.1419C21.5179 57.0676 33.7802 59.198 45.7771 52.0282C48.3852 50.471 50.5581 48.284 52.1082 45.6723C59.2355 33.6436 57.0591 21.3777 50.0839 13.394ZM14.8294 9.16143C12.4618 10.6159 10.473 12.6225 9.04326 15.0042C1.70712 27.1957 3.90832 39.6102 10.9932 47.6505L11.9982 46.6455C5.31326 39.0121 3.27131 27.2169 10.3137 15.7084C11.6337 13.5497 13.4457 11.7271 15.5973 10.3894C27.0775 3.255 38.9081 5.24387 46.5839 11.8935L47.5854 10.892C39.4884 3.82123 27.0032 1.68373 14.8329 9.16143H14.8294Z" fill="white"/>
<path d="M47.6202 12.6366C47.2451 12.6366 46.9301 12.3393 46.9124 11.9606L46.6541 6.12851C46.6364 5.73923 46.9407 5.40658 47.33 5.38888C47.7157 5.36765 48.0519 5.67553 48.0696 6.06481L48.328 11.8969C48.3457 12.2862 48.0413 12.6189 47.652 12.6366C47.6414 12.6366 47.6308 12.6366 47.6202 12.6366Z" fill="white"/>
<path d="M41.7359 12.9232C41.3607 12.9232 41.0458 12.6259 41.0281 12.2472C41.0104 11.858 41.3147 11.5253 41.704 11.5076L47.568 11.2493C47.9537 11.228 48.2899 11.5359 48.3076 11.9252C48.3253 12.3145 48.021 12.6471 47.6317 12.6648L41.7677 12.9232C41.7677 12.9232 41.7465 12.9232 41.7359 12.9232Z" fill="white"/>
<path d="M13.5621 55.6979C13.194 55.6979 12.8826 55.4113 12.8578 55.0397L12.4579 49.2146C12.4296 48.8253 12.7269 48.4856 13.1162 48.4609C13.509 48.4325 13.8452 48.7298 13.8699 49.1191L14.2698 54.9441C14.2981 55.3334 14.0009 55.6731 13.6116 55.6979C13.5939 55.6979 13.5798 55.6979 13.5621 55.6979Z" fill="white"/>
<path d="M13.1827 49.8446C12.8146 49.8446 12.5032 49.5579 12.4784 49.1863C12.4501 48.7971 12.7474 48.4573 13.1367 48.4325L18.9935 48.0326C19.3899 48.0008 19.7226 48.3016 19.7473 48.6909C19.7756 49.0802 19.4784 49.4199 19.0891 49.4447L13.2322 49.8446C13.2322 49.8446 13.2004 49.8446 13.1827 49.8446Z" fill="white"/>
</svg>
