<svg width="61" height="61" viewBox="0 0 61 61" fill="none" xmlns="http://www.w3.org/2000/svg">
<path d="M41.8655 4.47595H19.6349C17.3822 4.47595 15.5574 6.30908 15.5574 8.57203V17.1095C15.5574 17.2638 15.6817 17.3887 15.8353 17.3887H16.7459C16.8995 17.3887 17.0238 17.2638 17.0238 17.1095V8.30018C17.0238 7.00339 18.0734 5.94907 19.3606 5.94907H41.5913C43.0358 5.94907 44.2096 7.12463 44.2096 8.57938V17.1132C44.2096 17.2675 44.334 17.3924 44.4876 17.3924H45.3982C45.5517 17.3924 45.6761 17.2675 45.6761 17.1132V8.30386C45.6761 6.19888 43.9719 4.4833 41.8728 4.4833L41.8655 4.47595ZM44.206 41.8733V52.6554C44.206 53.9522 43.1564 55.0065 41.8655 55.0065H19.3569C18.066 55.0065 17.0202 53.9558 17.0202 52.6591V41.8733C17.0202 41.719 16.8958 41.5941 16.7422 41.5941H15.8316C15.678 41.5941 15.5537 41.719 15.5537 41.8733V52.6554C15.5537 54.764 17.2579 56.476 19.3533 56.476H41.8619C43.961 56.476 45.6651 54.764 45.6651 52.6554V41.8733C45.6651 41.719 45.5408 41.5941 45.3872 41.5941H44.4766C44.323 41.5941 44.1987 41.719 44.1987 41.8733H44.206Z" fill="white"/>
<path d="M45.4779 48.045H15.7725V49.5144H45.4779V48.045Z" fill="white"/>
<path d="M38.0577 41.4215C37.8712 41.4215 37.6847 41.3481 37.5421 41.2048C37.2568 40.9182 37.2568 40.4517 37.5421 40.1652L46.6771 30.9885C46.9916 30.6725 46.9916 30.1546 46.6771 29.8386L37.5859 20.706C37.3007 20.4195 37.3007 19.9529 37.5859 19.6664C37.8712 19.3798 38.3356 19.3798 38.6209 19.6664L48.7324 29.8239C48.8713 29.9635 48.9554 30.1472 48.9664 30.3456V30.3676C48.9847 30.6027 48.8969 30.8305 48.7324 30.9958L38.5733 41.2011C38.4307 41.3444 38.2442 41.4178 38.0577 41.4178V41.4215Z" fill="white"/>
<path d="M23.2478 41.4215C23.4343 41.4215 23.6208 41.3481 23.7634 41.2048C24.0486 40.9182 24.0486 40.4517 23.7634 40.1652L14.6283 30.9885C14.3138 30.6725 14.3138 30.1546 14.6283 29.8386L23.7195 20.706C24.0047 20.4195 24.0047 19.9529 23.7195 19.6664C23.4343 19.3798 22.9698 19.3798 22.6846 19.6664L12.5694 29.8239C12.4305 29.9635 12.3464 30.1472 12.3354 30.3456V30.3676C12.3171 30.6027 12.4049 30.8305 12.5694 30.9958L22.7285 41.2011C22.8711 41.3444 23.0576 41.4178 23.2441 41.4178L23.2478 41.4215Z" fill="white"/>
</svg>
