<svg width="60" height="61" viewBox="0 0 60 61" fill="none" xmlns="http://www.w3.org/2000/svg">
<path d="M29.9553 40.4702L21.4805 35.5757V25.7829L29.9553 20.8847L38.43 25.7829V35.5757L29.9553 40.4702ZM22.9818 34.708L29.9553 38.7385L36.9288 34.708V26.6507L29.9553 22.6201L22.9818 26.6507V34.708Z" fill="white"/>
<path d="M30.7474 30.6888H29.2461V38.9264H30.7474V30.6888Z" fill="white"/>
<path d="M36.7472 25.9216L29.6191 30.0404L30.3698 31.3416L37.4979 27.2228L36.7472 25.9216Z" fill="white"/>
<path d="M23.2448 25.921L22.4941 27.2222L29.6222 31.341L30.3729 30.0398L23.2448 25.921Z" fill="white"/>
<path d="M29.341 43.4167L29.2617 47.206L30.7627 47.2375L30.842 43.4482L29.341 43.4167Z" fill="white"/>
<path d="M29.9591 54.1996C29.9328 54.1996 29.9028 54.1996 29.8765 54.1996C28.8332 54.1771 27.8648 53.7526 27.1442 52.9976C26.4236 52.2463 26.037 51.2546 26.0595 50.2141C26.082 49.1699 26.5062 48.2008 27.2606 47.4795C28.0112 46.7583 29.002 46.3714 30.0417 46.394C32.1923 46.439 33.9038 48.227 33.8587 50.3794C33.8362 51.4237 33.4121 52.3928 32.6577 53.114C31.9258 53.8165 30.9725 54.1996 29.9591 54.1996ZM29.9591 47.8965C29.3361 47.8965 28.7506 48.1331 28.3002 48.5651C27.8386 49.0084 27.5758 49.6056 27.5608 50.248C27.5458 50.8903 27.7823 51.4988 28.2289 51.9608C28.6718 52.4229 29.2685 52.6858 29.9103 52.7008C30.5409 52.7159 31.1602 52.4755 31.6218 52.0322C32.0834 51.589 32.3462 50.9917 32.3612 50.3494C32.3875 49.0271 31.3366 47.9265 30.0117 47.9002C29.9929 47.9002 29.9779 47.9002 29.9591 47.9002V47.8965Z" fill="white"/>
<path d="M29.2375 14.7836L29.1582 18.5729L30.6592 18.6044L30.7385 14.8151L29.2375 14.7836Z" fill="white"/>
<path d="M30.0606 15.6371C30.0344 15.6371 30.0043 15.6371 29.9781 15.6371C27.8275 15.592 26.116 13.804 26.161 11.6516C26.1835 10.6074 26.6077 9.63825 27.3621 8.91703C28.1127 8.19582 29.0961 7.81267 30.1432 7.83145C31.1866 7.85399 32.1549 8.27846 32.8756 9.03348C33.5962 9.78474 33.9827 10.7764 33.9602 11.8169C33.9377 12.8612 33.5136 13.8303 32.7592 14.5515C32.0273 15.254 31.074 15.6371 30.0606 15.6371ZM30.0606 9.33399C29.4376 9.33399 28.8521 9.57063 28.4017 10.0026C27.9401 10.4459 27.6773 11.0431 27.6623 11.6854C27.636 13.0077 28.687 14.1083 30.0118 14.1346C30.6499 14.1534 31.2617 13.9092 31.7233 13.4659C32.185 13.0227 32.4477 12.4254 32.4627 11.7831C32.4777 11.1408 32.2413 10.5323 31.7946 10.0702C31.3517 9.60819 30.755 9.34526 30.1132 9.33023C30.0982 9.33023 30.0794 9.33023 30.0606 9.33023V9.33399Z" fill="white"/>
<path d="M45.9257 29.9375H42.1387V31.44H45.9257V29.9375Z" fill="white"/>
<path d="M48.9992 34.5916C46.8486 34.5916 45.0996 32.8411 45.0996 30.6887C45.0996 28.5364 46.8486 26.7859 48.9992 26.7859C51.1498 26.7859 52.8988 28.5364 52.8988 30.6887C52.8988 32.8411 51.1498 34.5916 48.9992 34.5916ZM48.9992 28.2884C47.6781 28.2884 46.6009 29.3665 46.6009 30.6887C46.6009 32.011 47.6781 33.089 48.9992 33.089C50.3204 33.089 51.3975 32.011 51.3975 30.6887C51.3975 29.3665 50.3204 28.2884 48.9992 28.2884Z" fill="white"/>
<path d="M17.8768 29.9375H14.0898V31.44H17.8768V29.9375Z" fill="white"/>
<path d="M11.0197 34.5916C8.86913 34.5916 7.12012 32.8411 7.12012 30.6887C7.12012 28.5364 8.86913 26.7859 11.0197 26.7859C13.1703 26.7859 14.9193 28.5364 14.9193 30.6887C14.9193 32.8411 13.1703 34.5916 11.0197 34.5916ZM11.0197 28.2884C9.69859 28.2884 8.62141 29.3665 8.62141 30.6887C8.62141 32.011 9.69859 33.089 11.0197 33.089C12.3409 33.089 13.418 32.011 13.418 30.6887C13.418 29.3665 12.3409 28.2884 11.0197 28.2884Z" fill="white"/>
<path d="M21.7916 38.098L12.9268 46.609L13.9661 47.6933L22.8309 39.1823L21.7916 38.098Z" fill="white"/>
<path d="M10.0628 56.4534C8.46771 56.4534 6.87259 55.8298 5.68657 54.5865C4.56435 53.4183 3.96758 51.8782 4.00136 50.2592C4.03514 48.6402 4.69946 47.1264 5.86671 46.007C7.03772 44.8839 8.5728 44.2866 10.1904 44.3204C11.8081 44.3542 13.3206 45.0191 14.4391 46.1873C15.5575 47.3555 16.1581 48.8956 16.1243 50.5146C16.0905 52.1336 15.4262 53.6474 14.2589 54.7668C13.0842 55.8937 11.5716 56.4534 10.0628 56.4534ZM10.0591 45.8192C8.87681 45.8192 7.75834 46.27 6.90261 47.0888C6.02435 47.934 5.52518 49.0684 5.4989 50.2892C5.47263 51.51 5.92301 52.667 6.76749 53.546C8.50898 55.364 11.4027 55.4241 13.2193 53.6812C14.0975 52.836 14.5967 51.7016 14.623 50.4808C14.6493 49.26 14.1989 48.1031 13.3544 47.2241C12.5099 46.3451 11.3765 45.8455 10.1567 45.8192C10.1229 45.8192 10.0929 45.8192 10.0591 45.8192Z" fill="white"/>
<path d="M13.9039 13.4157L12.8203 14.4557L21.3228 23.3293L22.4064 22.2894L13.9039 13.4157Z" fill="white"/>
<path d="M10.1203 16.61C10.0752 16.61 10.034 16.61 9.98892 16.61C8.37128 16.5762 6.85873 15.9113 5.74027 14.7431C4.61805 13.5749 4.02129 12.0348 4.05507 10.4158C4.08885 8.79682 4.75317 7.28302 5.92042 6.16363C7.09143 5.04049 8.6265 4.44699 10.2441 4.47704C11.8618 4.51085 13.3743 5.17196 14.4928 6.34394C16.8085 8.75926 16.726 12.6095 14.3126 14.9234C13.1754 16.0165 11.6891 16.6137 10.1165 16.6137L10.1203 16.61ZM10.1165 5.97582C8.93426 5.97582 7.8158 6.42658 6.96006 7.24546C6.08181 8.09063 5.58263 9.22504 5.55636 10.4458C5.53009 11.6667 5.98048 12.8236 6.82495 13.7026C7.66943 14.5816 8.8029 15.0812 10.0227 15.1075C11.2425 15.1375 12.3985 14.683 13.2768 13.8378C15.0933 12.0949 15.1534 9.19875 13.4119 7.38069C12.5674 6.50171 11.4339 6.00211 10.2141 5.97582C10.1803 5.97582 10.1503 5.97582 10.1165 5.97582Z" fill="white"/>
<path d="M38.2193 38.0963L39.912 39.7228L38.8499 40.7858L37.1797 39.1781L38.2193 38.0963Z" fill="white"/>
<path d="M40.9928 40.7632L43.8077 43.4715L42.7456 44.5345L39.9307 41.8225L40.9928 40.7632Z" fill="white"/>
<path d="M47.0766 46.6156L46.037 47.6974L45.0799 46.7771L43.8301 45.5751L44.8922 44.5121L46.1158 45.6915L47.0766 46.6156Z" fill="white"/>
<path d="M55.4955 47.9754C55.1802 47.2542 54.7223 46.5968 54.1368 46.0334C51.9111 43.8922 48.4544 43.7946 46.1162 45.6915C45.9248 45.8493 45.7408 46.0183 45.5644 46.2024C45.388 46.3865 45.2267 46.578 45.0803 46.7771C43.275 49.1924 43.5077 52.6407 45.7333 54.7856C46.9081 55.9125 48.4206 56.4759 49.9332 56.4759C51.5283 56.4759 53.1197 55.8524 54.3095 54.6128C55.4317 53.4446 56.0322 51.9082 55.9984 50.2893C55.9834 49.4779 55.8107 48.6928 55.4955 47.9754ZM53.2248 53.5723C51.4833 55.3904 48.5858 55.4467 46.773 53.7C44.9602 51.9571 44.9039 49.0572 46.6454 47.2429C47.5424 46.3113 48.7397 45.8455 49.937 45.8455C50.5037 45.8455 51.0742 45.9507 51.6146 46.1611C52.1514 46.3714 52.658 46.6907 53.0972 47.1152C53.9754 47.9604 54.4746 49.0985 54.4971 50.3193C54.5234 51.5364 54.0693 52.6933 53.2248 53.5723Z" fill="white"/>
<path d="M46.0909 13.3996L37.5791 22.2643L38.6616 23.3054L47.1734 14.4407L46.0909 13.3996Z" fill="white"/>
<path d="M49.8809 16.6137C48.3684 16.6137 46.852 16.054 45.681 14.9234C44.5138 13.8002 43.8532 12.2902 43.8194 10.6675C43.7894 9.04849 44.3899 7.51215 45.5121 6.34018C46.6344 5.17196 48.1432 4.51084 49.7646 4.47703C51.3784 4.44698 52.9173 5.04424 54.0883 6.17114C56.4978 8.4888 56.5767 12.339 54.2572 14.7544C53.0674 15.9902 51.476 16.6137 49.8846 16.6137H49.8809ZM49.8809 5.97957C49.8509 5.97957 49.8171 5.97957 49.7871 5.97957C48.5673 6.0021 47.4338 6.5017 46.5893 7.38068C45.7448 8.25966 45.2945 9.41661 45.317 10.6374C45.3395 11.8582 45.8387 12.9926 46.7169 13.8378C48.5297 15.5845 51.4235 15.5244 53.1687 13.7101C54.9102 11.8958 54.8539 8.99965 53.0411 7.25296C52.1854 6.43032 51.0669 5.97957 49.8809 5.97957Z" fill="white"/>
</svg>
