<svg width="60" height="61" viewBox="0 0 60 61" fill="none" xmlns="http://www.w3.org/2000/svg">
<path d="M33.3952 34.1196H26.6123L26.3951 33.8401C26.3444 33.7756 26.3009 33.7111 26.2574 33.6431L25.7686 32.8871L26.6196 32.5826C28.7779 31.8087 31.226 31.8087 33.388 32.5826L34.239 32.8871L33.7502 33.6431C33.7067 33.7111 33.6632 33.7756 33.6125 33.8365L33.3952 34.1196Z" fill="white"/>
<path d="M33.0192 27.1727H26.9098C26.5115 27.1727 26.1855 26.8503 26.1855 26.4562C26.1855 26.0621 26.5115 25.7396 26.9098 25.7396H33.0192C33.4175 25.7396 33.7434 26.0621 33.7434 26.4562C33.7434 26.8503 33.4175 27.1727 33.0192 27.1727Z" fill="white"/>
<path d="M36.1336 27.8784L34.7212 27.5596C35.2354 25.3311 35.5071 22.7802 35.5071 20.1791C35.5071 13.3898 31.2772 7.55711 29.9808 5.93413C28.2823 8.01929 24.4183 13.5869 24.4183 20.1791C24.4183 22.7802 24.6899 25.3347 25.2041 27.5596L23.7918 27.8784C23.2558 25.5496 22.9697 22.8841 22.9697 20.1755C22.9697 13.1354 27.0511 7.249 28.8074 5.04203C29.0899 4.68375 29.5136 4.47595 29.9627 4.47595C30.4117 4.47595 30.8354 4.68375 31.1215 5.04561C32.8743 7.24183 36.9556 13.1211 36.9556 20.1755C36.9556 22.8805 36.6695 25.5461 36.1336 27.8784Z" fill="white"/>
<path d="M29.9622 20.8277C28.1081 20.8277 26.6016 19.3373 26.6016 17.5029C26.6016 15.6686 28.1081 14.1781 29.9622 14.1781C31.8164 14.1781 33.3229 15.6686 33.3229 17.5029C33.3229 19.3373 31.8164 20.8277 29.9622 20.8277ZM29.9622 15.6112C28.9084 15.6112 28.0501 16.4604 28.0501 17.5029C28.0501 18.5455 28.9084 19.3946 29.9622 19.3946C31.0161 19.3946 31.8744 18.5455 31.8744 17.5029C31.8744 16.4604 31.0161 15.6112 29.9622 15.6112Z" fill="white"/>
<path d="M29.9626 32.973C29.5642 32.973 29.2383 32.6506 29.2383 32.2565V22.8876C29.2383 22.4935 29.5642 22.171 29.9626 22.171C30.3609 22.171 30.6868 22.4935 30.6868 22.8876V32.2565C30.6868 32.6506 30.3609 32.973 29.9626 32.973Z" fill="white"/>
<path d="M29.9479 51.6427C29.5496 51.6427 29.2236 51.3203 29.2236 50.9262V38.8595C29.2236 38.4654 29.5496 38.1429 29.9479 38.1429C30.3463 38.1429 30.6722 38.4654 30.6722 38.8595V50.9262C30.6722 51.3203 30.3463 51.6427 29.9479 51.6427Z" fill="white"/>
<path d="M33.0553 43.1946C32.657 43.1946 32.3311 42.8721 32.3311 42.478V36.8782C32.3311 36.4841 32.657 36.1617 33.0553 36.1617C33.4537 36.1617 33.7796 36.4841 33.7796 36.8782V42.478C33.7796 42.8721 33.4537 43.1946 33.0553 43.1946Z" fill="white"/>
<path d="M26.859 43.1946C26.4607 43.1946 26.1348 42.8721 26.1348 42.478V36.8782C26.1348 36.4841 26.4607 36.1617 26.859 36.1617C27.2574 36.1617 27.5833 36.4841 27.5833 36.8782V42.478C27.5833 42.8721 27.2574 43.1946 26.859 43.1946Z" fill="white"/>
<path d="M21.513 38.6946C21.4768 38.6946 21.4442 38.6946 21.408 38.691C20.9734 38.6516 20.6113 38.3579 20.4845 37.9494C20.1912 37.0107 20.0391 36.0327 20.0391 35.0402C20.0391 31.9376 21.5456 28.9854 24.0661 27.1439L24.957 26.4918L25.2032 27.5595C25.7355 29.8739 26.4997 31.7871 27.4195 33.0876L27.9591 33.8508L27.0719 34.1696C25.0982 34.8826 23.465 36.2834 22.4763 38.1178C22.2844 38.4761 21.9114 38.691 21.5094 38.691L21.513 38.6946ZM24.0769 29.0069C22.4401 30.5726 21.4876 32.758 21.4876 35.0366C21.4876 35.592 21.542 36.1473 21.6542 36.6883C22.6646 35.1585 24.0842 33.9367 25.7573 33.1629C25.0982 32.0343 24.5296 30.6263 24.0806 29.0069H24.0769Z" fill="white"/>
<path d="M38.4107 38.6946C38.0087 38.6946 37.6393 38.4761 37.4438 38.1214C36.4551 36.2834 34.8218 34.8826 32.8482 34.1732L31.9609 33.8543L32.5005 33.0912C33.4204 31.7907 34.1845 29.8811 34.7168 27.563L34.9631 26.4954L35.854 27.1474C38.3745 28.989 39.881 31.9411 39.881 35.0438C39.881 36.0326 39.7325 37.0107 39.4355 37.953C39.3052 38.365 38.943 38.6552 38.5084 38.6946C38.4722 38.6946 38.4397 38.6982 38.4034 38.6982L38.4107 38.6946ZM34.17 33.1629C35.8431 33.9403 37.2591 35.1585 38.2731 36.6883C38.3817 36.1473 38.4397 35.5955 38.4397 35.0366C38.4397 32.758 37.4872 30.5725 35.8503 29.0069C35.4013 30.6263 34.8327 32.0343 34.1736 33.1629H34.17Z" fill="white"/>
<path d="M25.7391 55.7592C25.6123 55.7592 25.4856 55.727 25.3697 55.6589C25.0257 55.4547 24.9134 55.0176 25.1198 54.6772C25.9962 53.2262 25.8296 51.3489 24.7143 50.1092C23.5301 48.7944 21.5165 48.454 19.9195 49.3031L18.7172 49.9444L18.8584 48.6009C19.0141 47.0961 18.3623 45.6451 17.1564 44.8068C15.5738 43.7104 13.7631 44.2228 13.5639 44.2873L12.7129 44.5524L12.626 43.6746C12.5861 43.2734 12.2964 41.2133 10.4568 40.0238C8.89592 39.0171 6.7955 39.0206 5.10792 40.0346C4.76751 40.2388 4.32207 40.1313 4.11203 39.7945C3.90199 39.4577 4.01427 39.0171 4.35468 38.8093C6.51666 37.5087 9.22187 37.5123 11.2462 38.82C13.0099 39.9593 13.6798 41.7005 13.9261 42.7395C14.8857 42.5998 16.4864 42.589 17.9821 43.628C19.3111 44.5488 20.1441 46.0106 20.2998 47.6085C22.2553 47.0567 24.4282 47.63 25.7971 49.1526C27.3289 50.8544 27.5607 53.4268 26.362 55.4081C26.2244 55.6338 25.9854 55.7556 25.7391 55.7556V55.7592Z" fill="white"/>
<path d="M21.4156 56.2573C21.0499 56.2573 20.7348 55.9814 20.695 55.6124C20.5863 54.5412 19.8512 53.6491 18.8698 53.3947C17.9173 53.1475 16.9287 53.5344 16.3529 54.38C16.2117 54.5878 15.9727 54.7203 15.7192 54.7311C15.4657 54.7382 15.2158 54.6308 15.0528 54.4337C14.6726 53.9751 14.075 53.7781 13.5282 53.9393C13.4847 53.9608 13.3073 54.1184 13.09 54.577C12.8763 55.0284 12.3838 55.2542 11.8986 55.1252C11.4097 54.9926 11.0982 54.5519 11.1453 54.0539C11.1791 53.6765 11.091 53.2992 10.881 52.9218C10.4464 52.1443 9.57362 51.6822 8.65016 51.7502C8.3532 51.7717 8.07071 51.6356 7.90413 51.392C7.74116 51.1519 7.72309 50.8438 7.84984 50.5858C8.06712 50.1523 8.52702 49.0094 8.0997 47.7949C7.62529 46.4406 6.28174 45.5664 4.74626 45.6094C4.3298 45.613 4.01114 45.312 4.00028 44.9144C3.98941 44.5167 4.30083 44.1871 4.69918 44.1763C6.87927 44.1047 8.78053 45.3729 9.46498 47.322C9.8742 48.4899 9.71849 49.5898 9.4831 50.3637C10.5985 50.5572 11.5871 51.2307 12.1412 52.2267C12.3005 52.5169 12.4128 52.7319 12.4852 52.9254C12.6808 52.7462 12.8908 52.6244 13.1153 52.5599C13.9772 52.3091 14.8971 52.4847 15.6141 53.0078C16.5593 52.0691 17.9354 51.6678 19.2283 52.0046C20.7927 52.4095 21.9552 53.8031 22.1254 55.4655C22.1653 55.8596 21.8756 56.2107 21.4772 56.2502C21.4519 56.2502 21.4265 56.2537 21.4048 56.2537L21.4156 56.2573Z" fill="white"/>
<path d="M34.2649 56.476C34.0186 56.476 33.7796 56.3506 33.642 56.1285C32.4433 54.1472 32.6787 51.5748 34.2069 49.873C35.5722 48.3539 37.7487 47.7807 39.7042 48.3289C39.8599 46.7309 40.6929 45.2692 42.0219 44.3484C43.5212 43.3094 45.1182 43.3202 46.0779 43.4599C46.3278 42.4173 46.9941 40.6797 48.7614 39.5404C50.7858 38.2327 53.4946 38.2291 55.6529 39.5296C55.9934 39.7339 56.102 40.1745 55.8955 40.5149C55.6855 40.8517 55.2401 40.9592 54.8997 40.7549C53.2121 39.741 51.1117 39.7339 49.5508 40.7442C47.7075 41.9337 47.4214 43.9902 47.3816 44.3914L47.2947 45.2692L46.4437 45.0041C46.2445 44.9432 44.4338 44.4272 42.8512 45.5236C41.6453 46.3583 40.9898 47.8129 41.1492 49.3177L41.2904 50.6612L40.0881 50.0199C38.4911 49.1708 36.4739 49.5076 35.2933 50.826C34.1779 52.0657 34.0113 53.943 34.8877 55.394C35.0941 55.7344 34.9819 56.1751 34.6379 56.3757C34.522 56.4438 34.3916 56.476 34.2685 56.476H34.2649Z" fill="white"/>
<path d="M39.0554 55.899C39.0301 55.899 39.0047 55.899 38.9794 55.8955C38.581 55.8525 38.2949 55.5014 38.3348 55.1073C38.5013 53.5523 39.6457 52.2554 41.174 51.8792C42.4342 51.5711 43.7596 51.9329 44.6831 52.8C45.3857 52.3163 46.2729 52.1587 47.1094 52.388C47.334 52.4489 47.5332 52.5599 47.7178 52.7247C47.7939 52.542 47.9026 52.345 48.051 52.0942C48.5906 51.1806 49.5285 50.5608 50.6005 50.3745C50.3796 49.6543 50.2528 48.6619 50.6476 47.605C51.3211 45.7993 53.1826 44.6277 55.2939 44.6886C55.6922 44.6994 56.0073 45.0326 55.9964 45.4267C55.9855 45.8208 55.6524 46.1253 55.2504 46.1217C53.7765 46.0823 52.4546 46.892 52.0056 48.0994C51.6471 49.0667 51.9585 49.9911 52.1794 50.4533C52.317 50.7435 52.2917 51.0731 52.1179 51.3382C51.944 51.6033 51.6398 51.7574 51.332 51.7502C50.4882 51.7395 49.6988 52.1443 49.304 52.8179C49.0216 53.3015 49.0216 53.3159 49.0324 53.5237C49.065 54.036 48.7391 54.491 48.2393 54.6307C47.7359 54.7705 47.2109 54.5519 46.961 54.0933C46.8125 53.8175 46.7147 53.7673 46.7147 53.7673C46.2186 53.6312 45.6754 53.7781 45.306 54.1507C45.1213 54.337 44.8642 54.4409 44.5962 54.4229C44.3246 54.4086 44.0674 54.2796 43.8972 54.0647C43.3323 53.366 42.398 53.0543 41.5252 53.2693C40.5837 53.5022 39.8811 54.3011 39.7761 55.2577C39.7362 55.6267 39.4212 55.899 39.0554 55.899Z" fill="white"/>
<path d="M25.0051 13.9344C24.6502 13.9344 24.3388 13.6764 24.2881 13.3181C24.2338 12.9276 24.509 12.5658 24.9037 12.5084L27.4387 12.1573C29.1371 11.9209 30.8609 11.9209 32.563 12.1502L35.0075 12.4834C35.4022 12.5371 35.681 12.899 35.6267 13.2895C35.5724 13.68 35.203 13.9559 34.8119 13.9021L32.3674 13.5689C30.7994 13.3576 29.2095 13.3576 27.6415 13.5761L25.1065 13.9272C25.0739 13.9308 25.0377 13.9344 25.0051 13.9344Z" fill="white"/>
</svg>
