<svg width="61" height="61" viewBox="0 0 61 61" fill="none" xmlns="http://www.w3.org/2000/svg">
<path d="M52.2147 56.476H8.78528C6.42148 56.476 4.5 54.5545 4.5 52.1907V8.76125C4.5 6.39745 6.42148 4.47595 8.78528 4.47595H52.2147C54.5785 4.47595 56.5 6.39745 56.5 8.76125V52.1907C56.5 54.5545 54.5785 56.476 52.2147 56.476ZM8.78528 5.92251C7.2227 5.92251 5.95019 7.19505 5.95019 8.75762V52.1871C5.95019 53.7496 7.2227 55.0222 8.78528 55.0222H52.2147C53.7773 55.0222 55.0498 53.7496 55.0498 52.1871V8.76125C55.0498 7.19868 53.7773 5.92614 52.2147 5.92614H8.78528V5.92251Z" fill="white"/>
<path d="M55.7753 11.8792H4.89551V13.3293H55.7753V11.8792Z" fill="white"/>
<path d="M52.5337 9.47185H39.5509C39.0506 9.47185 38.6445 9.06579 38.6445 8.56548C38.6445 8.06517 39.0506 7.65911 39.5509 7.65911H52.5337C53.034 7.65911 53.4401 8.06517 53.4401 8.56548C53.4401 9.06579 53.034 9.47185 52.5337 9.47185Z" fill="white"/>
<path d="M10.6158 9.47185H7.99816C7.49785 9.47185 7.0918 9.06579 7.0918 8.56548C7.0918 8.06517 7.49785 7.65911 7.99816 7.65911H10.6158C11.1161 7.65911 11.5221 8.06517 11.5221 8.56548C11.5221 9.06579 11.1161 9.47185 10.6158 9.47185Z" fill="#ED1C24"/>
<path d="M10.6158 9.47185H7.99816C7.49785 9.47185 7.0918 9.06579 7.0918 8.56548C7.0918 8.06517 7.49785 7.65911 7.99816 7.65911H10.6158C11.1161 7.65911 11.5221 8.06517 11.5221 8.56548C11.5221 9.06579 11.1161 9.47185 10.6158 9.47185Z" fill="#ED1C24"/>
<path d="M10.6158 9.47185H7.99816C7.49785 9.47185 7.0918 9.06579 7.0918 8.56548C7.0918 8.06517 7.49785 7.65911 7.99816 7.65911H10.6158C11.1161 7.65911 11.5221 8.06517 11.5221 8.56548C11.5221 9.06579 11.1161 9.47185 10.6158 9.47185Z" fill="white"/>
<path d="M16.3697 9.47185H13.7521C13.2518 9.47185 12.8457 9.06579 12.8457 8.56548C12.8457 8.06517 13.2518 7.65911 13.7521 7.65911H16.3697C16.87 7.65911 17.2761 8.06517 17.2761 8.56548C17.2761 9.06579 16.87 9.47185 16.3697 9.47185Z" fill="white"/>
<path d="M20.5529 34.8425C20.3767 34.8425 20.2005 34.7769 20.0656 34.6429C19.7958 34.375 19.7958 33.943 20.0656 33.675L25.4337 28.3433C25.7035 28.0754 26.1384 28.0754 26.4082 28.3433C26.678 28.6113 26.678 29.0433 26.4082 29.3112L21.0401 34.6429C20.9052 34.7769 20.7291 34.8425 20.5529 34.8425Z" fill="white"/>
<path d="M25.9485 40.248C25.7723 40.248 25.5961 40.1824 25.4612 40.0484L20.0656 34.6894C19.7958 34.4214 19.7958 33.9894 20.0656 33.7215C20.3354 33.4535 20.7704 33.4535 21.0401 33.7215L26.4357 39.0805C26.7055 39.3484 26.7055 39.7804 26.4357 40.0484C26.3008 40.1824 26.1247 40.248 25.9485 40.248Z" fill="white"/>
<path d="M40.1368 34.8835C39.9606 34.8835 39.7844 34.8179 39.6495 34.6839L34.2814 29.3522C34.0117 29.0843 34.0117 28.6523 34.2814 28.3843C34.5512 28.1164 34.9862 28.1164 35.256 28.3843L40.624 33.716C40.8938 33.984 40.8938 34.416 40.624 34.6839C40.4891 34.8179 40.313 34.8835 40.1368 34.8835Z" fill="white"/>
<path d="M34.7443 40.2917C34.5681 40.2917 34.3919 40.2261 34.257 40.0921C33.9872 39.8242 33.9872 39.3922 34.257 39.1242L39.6526 33.7652C39.9224 33.4973 40.3574 33.4973 40.6271 33.7652C40.8969 34.0332 40.8969 34.4652 40.6271 34.7331L35.2315 40.0921C35.0966 40.2261 34.9205 40.2917 34.7443 40.2917Z" fill="white"/>
<path d="M28.7479 40.5214C28.6763 40.5214 28.602 40.5105 28.5304 40.4859C28.1698 40.3655 27.9743 39.98 28.0955 39.6218L31.8393 28.4253C31.9577 28.0672 32.3486 27.873 32.7093 27.9933C33.0699 28.1136 33.2653 28.4992 33.1442 28.8573L29.4003 40.0538C29.304 40.3409 29.0369 40.5214 28.7479 40.5214Z" fill="white"/>
</svg>
