<svg width="61" height="61" viewBox="0 0 61 61" fill="none" xmlns="http://www.w3.org/2000/svg">
<path d="M54.1615 53.3369H41.9756V53.7057H54.1615V53.3369Z" fill="white"/>
<path d="M54.1617 54.2585H41.6218C40.9173 53.6094 41.3452 52.7832 41.9574 52.7832H54.4974C55.1981 53.4323 54.7703 54.2585 54.1617 54.2585Z" fill="white"/>
<path d="M54.162 54.4437H41.5667L41.5151 54.3958C41.3352 54.2552 41.2032 54.0624 41.1371 53.8439C41.0711 53.6253 41.0743 53.3916 41.1463 53.175C41.2083 53.0074 41.3199 52.8626 41.4661 52.7598C41.6123 52.6571 41.7864 52.6012 41.9651 52.5996H54.5604L54.612 52.6475C54.7926 52.7884 54.9252 52.9818 54.9912 53.2011C55.0573 53.4204 55.0536 53.6549 54.9808 53.872C54.9181 54.039 54.8064 54.1829 54.6602 54.285C54.514 54.3871 54.3403 54.4424 54.162 54.4437ZM41.7143 54.0749H54.162C54.2663 54.073 54.3676 54.0396 54.4525 53.979C54.5375 53.9185 54.6021 53.8336 54.6378 53.7356C54.6793 53.6006 54.6812 53.4566 54.6433 53.3207C54.6053 53.1847 54.5292 53.0624 54.4239 52.9684H41.9761C41.8718 52.9703 41.7706 53.0037 41.6856 53.0643C41.6007 53.1249 41.5361 53.2097 41.5004 53.3077C41.4598 53.4434 41.459 53.5878 41.4983 53.7238C41.5375 53.8599 41.615 53.9817 41.7217 54.0749H41.7143Z" fill="white"/>
<path d="M18.2393 48.5088L18.3942 48.6342C18.3425 48.5899 18.2909 48.553 18.2393 48.5088Z" fill="#080405"/>
<path d="M18.4086 48.8779L18.1836 48.7009L18.1172 48.6492L18.3532 48.3652L18.416 48.4169L18.4823 48.4648L18.6557 48.5939L18.5266 48.7599L18.4086 48.8779Z" fill="white"/>
<path d="M23.8266 9.68703C23.5684 9.78292 23.3103 9.8825 23.0558 9.98577C19.486 11.435 16.354 13.7866 13.9662 16.8101C11.5785 19.8337 10.0171 23.4256 9.4348 27.2341C8.85255 31.0425 9.26948 34.9369 10.6447 38.5357C12.02 42.1346 14.3064 45.3146 17.28 47.7642C17.5935 48.0224 17.9107 48.2732 18.2389 48.5018L18.3939 48.6272L18.7627 48.9149C18.9508 49.6341 18.4971 50.0509 18.025 50.0435C17.8654 50.0395 17.7114 49.9839 17.5862 49.8849L17.044 49.4608L16.6235 49.1325C16.3911 48.9518 16.1662 48.7637 15.9449 48.5719C12.8224 45.8894 10.4519 42.4402 9.06665 38.5637C7.6814 34.6872 7.32906 30.5169 8.04429 26.463C8.75952 22.409 10.5177 18.6111 13.1458 15.4427C15.774 12.2742 19.1817 9.84452 23.0336 8.39246L23.0816 8.37402C23.2281 8.38807 23.3691 8.43727 23.4925 8.51745C23.616 8.59764 23.7183 8.70644 23.7907 8.8346C23.8631 8.96276 23.9035 9.1065 23.9084 9.25362C23.9134 9.40074 23.8828 9.54689 23.8192 9.67964L23.8266 9.68703Z" fill="white"/>
<path d="M18.0577 50.235C17.8577 50.23 17.6648 50.1601 17.5081 50.0359L16.5455 49.2982C16.2984 49.1064 16.0734 48.9294 15.8595 48.7302C12.7133 46.0267 10.325 42.5509 8.9294 38.6446C7.53378 34.7383 7.17892 30.5359 7.8997 26.4509C8.62048 22.3659 10.3921 18.5387 13.0403 15.3459C15.6886 12.1531 19.1222 9.70453 23.0036 8.24099L23.0921 8.2041H23.1363C23.335 8.22451 23.5241 8.29936 23.6829 8.42041C23.8417 8.54146 23.964 8.704 24.0363 8.89012C24.0926 9.03174 24.119 9.18346 24.1139 9.33578C24.1089 9.4881 24.0724 9.63773 24.0068 9.77529L23.9736 9.84167L23.9035 9.86749C23.649 9.96339 23.3908 10.0593 23.14 10.1626C19.6 11.5998 16.4939 13.9319 14.126 16.9303C11.7582 19.9288 10.2097 23.4909 9.63229 27.2677C9.05487 31.0445 9.46828 34.9066 10.8321 38.4756C12.1959 42.0446 14.4633 45.1982 17.4122 47.6275C17.781 47.9225 18.0687 48.1586 18.3601 48.3651L18.9465 48.8225V48.8815C19.0012 49.0497 19.0156 49.2285 18.9887 49.4033C18.9618 49.5782 18.8943 49.7443 18.7916 49.8884C18.7026 49.9969 18.5905 50.0843 18.4636 50.1442C18.3367 50.2042 18.198 50.2352 18.0577 50.235ZM23.1253 8.55818C19.2964 9.99589 15.9084 12.4067 13.2952 15.553C10.6821 18.6993 8.9342 22.4724 8.22381 26.5001C7.51343 30.5279 7.86511 34.6712 9.2442 38.5216C10.6233 42.372 12.9821 45.7965 16.0882 48.4573C16.2947 48.6417 16.516 48.8261 16.7594 49.0106L17.7221 49.7666C17.8163 49.8397 17.9311 49.881 18.0503 49.8847C18.137 49.8879 18.2231 49.8701 18.3015 49.8329C18.3798 49.7956 18.448 49.74 18.5003 49.6707C18.5626 49.581 18.6041 49.4785 18.622 49.3707C18.6399 49.2629 18.6335 49.1525 18.6035 49.0474L18.1241 48.6786C17.8327 48.4684 17.5266 48.2323 17.1614 47.941C14.1641 45.4705 11.8596 42.264 10.4735 38.6355C9.08749 35.0069 8.66739 31.0806 9.25442 27.241C9.84144 23.4013 11.4155 19.7799 13.8224 16.7312C16.2293 13.6826 19.3865 11.3111 22.9851 9.84906C23.2175 9.75316 23.4535 9.66095 23.6896 9.57612C23.7527 9.40852 23.7527 9.22369 23.6896 9.05609C23.6472 8.93215 23.5726 8.82171 23.4734 8.73615C23.3742 8.65059 23.2541 8.59298 23.1253 8.56924V8.55818Z" fill="white"/>
<path d="M53.6601 30.3855C53.6526 36.6481 51.1728 42.6544 46.76 47.0982C42.3473 51.5421 36.3585 54.064 30.0961 54.1155H6.33661C6.16782 54.0835 6.01546 53.9936 5.90588 53.8613C5.7963 53.729 5.73633 53.5626 5.73633 53.3908C5.73633 53.219 5.7963 53.0525 5.90588 52.9202C6.01546 52.7879 6.16782 52.698 6.33661 52.666H29.9412V52.6402C35.7579 52.6586 41.3507 50.3992 45.5225 46.3457C49.6943 42.2922 52.1135 36.7667 52.2625 30.9519C52.4114 25.137 50.2782 19.4949 46.3194 15.2332C42.3606 10.9714 36.8909 8.4287 31.0809 8.14922L32.8696 9.88638C32.9745 9.98891 33.0464 10.1204 33.0762 10.264C33.106 10.4076 33.0923 10.5568 33.0369 10.6925C32.9815 10.8283 32.8868 10.9445 32.765 11.0262C32.6433 11.108 32.4999 11.1516 32.3533 11.1514C32.1621 11.1516 31.9783 11.0776 31.8406 10.9449L28.82 7.99432C28.7033 7.88124 28.6291 7.73149 28.6097 7.57018C28.6061 7.52477 28.6061 7.47912 28.6097 7.43371C28.6059 7.39816 28.6059 7.36231 28.6097 7.32676C28.6304 7.16505 28.7059 7.01532 28.8237 6.9026L31.8775 3.95203C31.947 3.88447 32.0291 3.83125 32.1192 3.79543C32.2093 3.7596 32.3055 3.74187 32.4024 3.74324C32.4994 3.74461 32.5951 3.76505 32.6841 3.80341C32.7731 3.84177 32.8537 3.89728 32.9213 3.96678C32.9888 4.03629 33.042 4.11842 33.0779 4.20849C33.1137 4.29856 33.1314 4.3948 33.13 4.49173C33.1287 4.58865 33.1082 4.68435 33.0699 4.77337C33.0315 4.86239 32.976 4.94299 32.9065 5.01056L31.1915 6.67394C37.2576 7.00579 42.9664 9.64802 47.145 14.0579C51.3237 18.4677 53.655 24.3103 53.6601 30.3855Z" fill="white"/>
<path d="M29.9188 54.2996H6.31423C6.09039 54.2749 5.88354 54.1685 5.73331 54.0007C5.58307 53.833 5.5 53.6157 5.5 53.3905C5.5 53.1653 5.58307 52.948 5.73331 52.7803C5.88354 52.6125 6.09039 52.5061 6.31423 52.4814H29.716L29.9004 52.4555C35.6086 52.4463 41.0914 50.2265 45.1983 46.2619C49.3051 42.2973 51.7168 36.8961 51.9272 31.1917C52.1377 25.4874 50.1305 19.9232 46.3269 15.6668C42.5233 11.4104 37.2189 8.79269 31.5269 8.36289L32.9579 9.75335C33.0437 9.83868 33.1117 9.94012 33.1582 10.0518C33.2046 10.1635 33.2285 10.2833 33.2285 10.4043C33.2285 10.5253 33.2046 10.6451 33.1582 10.7568C33.1117 10.8685 33.0437 10.97 32.9579 11.0553C32.7848 11.2246 32.5534 11.3212 32.3113 11.3253C32.0693 11.3294 31.8347 11.2407 31.656 11.0774L28.6316 8.14529C28.4851 8.00227 28.3915 7.8137 28.3661 7.61049C28.362 7.55771 28.362 7.50469 28.3661 7.4519C28.3605 7.40412 28.3605 7.35584 28.3661 7.30806C28.3941 7.10993 28.4876 6.92686 28.6316 6.78802L31.6855 3.83745C31.7724 3.75293 31.8752 3.68637 31.9878 3.64155C32.1005 3.59674 32.2209 3.57455 32.3421 3.57626C32.4633 3.57798 32.5831 3.60355 32.6944 3.65153C32.8058 3.69951 32.9066 3.76895 32.9911 3.85589C33.0756 3.94283 33.1422 4.04556 33.187 4.15823C33.2318 4.27089 33.254 4.39128 33.2523 4.51252C33.2506 4.63376 33.225 4.75348 33.177 4.86483C33.1291 4.97619 33.0596 5.07699 32.9727 5.16151L31.5564 6.53353C37.7256 6.96556 43.4878 9.77039 47.6335 14.3594C51.7793 18.9484 53.9864 24.9649 53.7918 31.1462C53.5971 37.3275 51.0157 43.1931 46.5894 47.5121C42.163 51.8311 36.2358 54.2678 30.0516 54.3107L29.9188 54.2996ZM6.31423 52.8502C6.18802 52.8736 6.07398 52.9404 5.99191 53.0391C5.90984 53.1378 5.86495 53.2621 5.86495 53.3905C5.86495 53.5189 5.90984 53.6432 5.99191 53.7419C6.07398 53.8406 6.18802 53.9074 6.31423 53.9308H30.0627C36.1868 53.8886 42.0535 51.4623 46.4185 47.1665C50.7835 42.8707 53.3033 37.0435 53.4434 30.9208C53.5835 24.7982 51.3329 18.8618 47.169 14.3708C43.0051 9.87992 37.2554 7.18778 31.1396 6.86548L30.7192 6.84335L32.7366 4.8849C32.7914 4.83496 32.8357 4.7745 32.8667 4.70713C32.8976 4.63976 32.9147 4.56685 32.917 4.49272C32.9192 4.4186 32.9066 4.34478 32.8797 4.27566C32.8529 4.20653 32.8124 4.14351 32.7607 4.09033C32.709 4.03716 32.6472 3.99492 32.5788 3.96613C32.5105 3.93733 32.4371 3.92258 32.3629 3.92273C32.2887 3.92288 32.2154 3.93793 32.1472 3.967C32.0789 3.99607 32.0173 4.03856 31.9658 4.09194L28.9119 7.04251C28.8238 7.12506 28.7676 7.23609 28.7533 7.35601C28.7506 7.38422 28.7506 7.41263 28.7533 7.44084C28.7514 7.47647 28.7514 7.51216 28.7533 7.54779C28.7669 7.67005 28.823 7.78366 28.9119 7.86867L31.9326 10.8008C32.0385 10.9001 32.1783 10.9554 32.3235 10.9554C32.4688 10.9554 32.6085 10.9001 32.7145 10.8008C32.8168 10.695 32.8737 10.5534 32.8731 10.4062C32.87 10.2597 32.809 10.1204 32.7034 10.0189L30.5643 7.93875L31.0548 7.96456C36.8758 8.27571 42.3475 10.8392 46.3122 15.1127C50.2769 19.3862 52.4235 25.0345 52.298 30.8625C52.1725 36.6905 49.7846 42.2411 45.6395 46.3399C41.4945 50.4387 35.9175 52.7642 30.0885 52.8244L29.9041 52.8502H6.31423Z" fill="white"/>
<path d="M54.545 54.2623C54.9544 54.2623 55.3637 53.9193 55.3121 53.2407L51.7456 49.7811C50.7609 49.7332 50.51 50.6368 50.9748 51.0868L54.0286 54.0373C54.1642 54.1777 54.3499 54.2586 54.545 54.2623Z" fill="white"/>
<path d="M54.5424 54.4472C54.3027 54.4459 54.0728 54.3521 53.9006 54.1853L50.8468 51.2347C50.7124 51.1041 50.621 50.9357 50.5848 50.7519C50.5486 50.5681 50.5692 50.3775 50.6439 50.2057C50.7426 50.0031 50.9026 49.8367 51.1012 49.7301C51.2998 49.6235 51.527 49.5822 51.7504 49.6119H51.8168L55.4865 53.2116V53.2411C55.5087 53.4051 55.4955 53.5719 55.4478 53.7303C55.4001 53.8887 55.319 54.0351 55.2099 54.1595C55.1238 54.25 55.0203 54.3222 54.9056 54.3716C54.7909 54.421 54.6673 54.4467 54.5424 54.4472ZM51.6803 49.9623C51.5417 49.9483 51.4021 49.9759 51.2792 50.0415C51.1564 50.1072 51.0559 50.2081 50.9906 50.3311C50.9471 50.4345 50.9357 50.5486 50.9581 50.6585C50.9805 50.7684 51.0355 50.869 51.116 50.9471L54.1699 53.8976C54.2788 53.9981 54.4227 54.0521 54.5708 54.0479C54.719 54.0438 54.8597 53.9819 54.9628 53.8755C55.0969 53.7152 55.1619 53.5083 55.1436 53.3001L51.6803 49.9623Z" fill="white"/>
<path d="M51.5251 57.2241C51.7168 57.2233 51.9007 57.1479 52.0377 57.0139L55.3129 53.8383C55.3903 52.8536 54.4941 52.577 54.0331 53.0269L50.7579 56.2025C50.7026 56.8811 51.1157 57.2241 51.5251 57.2241Z" fill="white"/>
<path d="M51.5245 57.4084C51.3969 57.4081 51.2707 57.3814 51.1539 57.33C51.0372 57.2785 50.9323 57.2035 50.8458 57.1097C50.738 56.9839 50.6579 56.8367 50.6109 56.6778C50.5638 56.5189 50.5509 56.3519 50.5729 56.1876L50.5951 56.1028L50.6283 56.0696L53.8923 52.883C54.0274 52.7529 54.1987 52.6667 54.3836 52.6358C54.5686 52.6048 54.7587 52.6306 54.9287 52.7096C55.1278 52.816 55.2885 52.9821 55.3884 53.1845C55.4883 53.3869 55.5223 53.6155 55.4856 53.8382V53.9083L52.1662 57.1355C52.0825 57.2211 51.9828 57.2892 51.8726 57.3361C51.7625 57.3829 51.6442 57.4075 51.5245 57.4084ZM50.9381 56.3019C50.9282 56.4051 50.9391 56.5091 50.9701 56.6079C51.0012 56.7068 51.0517 56.7984 51.1188 56.8773C51.2214 56.9846 51.3623 57.0471 51.5107 57.0512C51.6592 57.0554 51.8033 57.0008 51.9117 56.8995L55.1352 53.7718C55.1516 53.6315 55.1251 53.4894 55.0593 53.3644C54.9935 53.2393 54.8914 53.1371 54.7664 53.0711C54.6647 53.0239 54.5512 53.0086 54.4407 53.027C54.3301 53.0454 54.2277 53.0968 54.1468 53.1743L50.9381 56.3019Z" fill="white"/>
<path d="M15.9668 48.5791C16.1881 48.7746 16.4131 48.9479 16.6454 49.1397L16.107 48.7193C16.0549 48.6782 16.0078 48.6312 15.9668 48.5791Z" fill="white"/>
<path d="M16.5314 49.2835L16.4761 49.2393L15.9929 48.8704C15.9292 48.8215 15.8722 48.7645 15.8232 48.7008L16.0888 48.4463C16.2806 48.6159 16.4834 48.7856 16.701 48.9589L16.76 49.0032L16.5314 49.2835Z" fill="white"/>
<path d="M18.2382 48.5091C17.91 48.2731 17.5928 48.0223 17.2793 47.7715L18.2382 48.5091Z" fill="white"/>
<path d="M18.1165 48.6599C17.8177 48.4423 17.5116 48.2062 17.1465 47.9222L17.3788 47.6309L18.3378 48.3685L18.1165 48.6599Z" fill="white"/>
</svg>
