<svg width="525" height="512" viewBox="0 0 525 512" fill="none" xmlns="http://www.w3.org/2000/svg">
<path d="M331.831 377.976H320V404.257H331.831V377.976Z" fill="#66A9D3" stroke="#001624" stroke-width="4" stroke-miterlimit="10" stroke-linecap="round"/>
<path d="M348.845 363.331H337.014V404.256H348.845V363.331Z" fill="#66A9D3" stroke="#001624" stroke-width="4" stroke-miterlimit="10" stroke-linecap="round"/>
<path d="M365.999 355.743H354.168V404.257H365.999V355.743Z" fill="#66A9D3" stroke="#001624" stroke-width="4" stroke-miterlimit="10" stroke-linecap="round"/>
<path d="M424.762 118.478V90.5034" stroke="#001624" stroke-width="4" stroke-miterlimit="10" stroke-linecap="round"/>
<path d="M407.146 90.5034H424.762" stroke="#001624" stroke-width="4" stroke-miterlimit="10" stroke-linecap="round"/>
<path d="M397.758 98.2634C402.044 98.2634 405.518 94.7891 405.518 90.5034C405.518 86.2177 402.044 82.7434 397.758 82.7434C393.472 82.7434 389.998 86.2177 389.998 90.5034C389.998 94.7891 393.472 98.2634 397.758 98.2634Z" fill="#FFD467" stroke="#001624" stroke-width="4" stroke-miterlimit="10"/>
<path d="M359.643 168.75H388.445" stroke="#001624" stroke-width="4" stroke-miterlimit="10" stroke-linecap="round"/>
<path d="M351.869 176.51C356.155 176.51 359.629 173.036 359.629 168.75C359.629 164.464 356.155 160.99 351.869 160.99C347.584 160.99 344.109 164.464 344.109 168.75C344.109 173.036 347.584 176.51 351.869 176.51Z" fill="#FFD467" stroke="#001624" stroke-width="4" stroke-miterlimit="10"/>
<path d="M510.018 155.054H487.631" stroke="#001624" stroke-width="4" stroke-miterlimit="10" stroke-linecap="round"/>
<path d="M513.022 162.814C517.307 162.814 520.782 159.34 520.782 155.054C520.782 150.768 517.307 147.294 513.022 147.294C508.736 147.294 505.262 150.768 505.262 155.054C505.262 159.34 508.736 162.814 513.022 162.814Z" fill="#FFD467" stroke="#001624" stroke-width="4" stroke-miterlimit="10"/>
<path d="M458.441 94.5775V118.504" stroke="#001624" stroke-width="4" stroke-miterlimit="10" stroke-linecap="round"/>
<path d="M473.611 94.5775H458.557" stroke="#001624" stroke-width="4" stroke-miterlimit="10" stroke-linecap="round"/>
<path d="M442.014 105.816V118.478" stroke="#001624" stroke-width="4" stroke-miterlimit="10" stroke-linecap="round"/>
<path d="M424.762 217.017V236.689" stroke="#001624" stroke-width="4" stroke-miterlimit="10" stroke-linecap="round"/>
<path d="M447.473 217.017V251.743" stroke="#001624" stroke-width="4" stroke-miterlimit="10" stroke-linecap="round"/>
<path d="M374.812 155.067H387.474" stroke="#001624" stroke-width="4" stroke-miterlimit="10" stroke-linecap="round"/>
<path d="M484.035 118.698H391.122C389.693 118.698 388.535 119.856 388.535 121.285V214.198C388.535 215.626 389.693 216.785 391.122 216.785H484.035C485.464 216.785 486.622 215.626 486.622 214.198V121.285C486.622 119.856 485.464 118.698 484.035 118.698Z" fill="#FF8368" stroke="#001624" stroke-width="4" stroke-miterlimit="10" stroke-linecap="round"/>
<path d="M365.831 236.743H346.169C345.523 236.743 345 237.267 345 237.912V257.574C345 258.22 345.523 258.743 346.169 258.743H365.831C366.477 258.743 367 258.22 367 257.574V237.912C367 237.267 366.477 236.743 365.831 236.743Z" fill="#FFD467" stroke="#001624" stroke-width="4" stroke-miterlimit="10" stroke-linecap="round"/>
<path d="M363.937 286.743H346.063C345.476 286.743 345 287.219 345 287.806V305.681C345 306.268 345.476 306.743 346.063 306.743H363.937C364.524 306.743 365 306.268 365 305.681V287.806C365 287.219 364.524 286.743 363.937 286.743Z" fill="#FFD467" stroke="#001624" stroke-width="4" stroke-miterlimit="10" stroke-linecap="round"/>
<path d="M414.937 314.743H397.063C396.476 314.743 396 315.219 396 315.806V333.681C396 334.268 396.476 334.743 397.063 334.743H414.937C415.524 334.743 416 334.268 416 333.681V315.806C416 315.219 415.524 314.743 414.937 314.743Z" fill="#FFD467" stroke="#001624" stroke-width="4" stroke-miterlimit="10" stroke-linecap="round"/>
<path d="M405.915 270.743H392.085C391.486 270.743 391 271.229 391 271.828V285.659C391 286.258 391.486 286.743 392.085 286.743H405.915C406.514 286.743 407 286.258 407 285.659V271.828C407 271.229 406.514 270.743 405.915 270.743Z" fill="#FFD467" stroke="#001624" stroke-width="4" stroke-miterlimit="10" stroke-linecap="round"/>
<path d="M437.051 254.743H424.949C424.425 254.743 424 255.168 424 255.693V267.794C424 268.318 424.425 268.743 424.949 268.743H437.051C437.575 268.743 438 268.318 438 267.794V255.693C438 255.168 437.575 254.743 437.051 254.743Z" fill="#FFD467" stroke="#001624" stroke-width="4" stroke-miterlimit="10" stroke-linecap="round"/>
<path d="M228.511 203.583C231.459 202.172 232.704 198.638 231.293 195.691C229.882 192.743 226.349 191.498 223.401 192.909C220.454 194.32 219.208 197.853 220.619 200.801C222.031 203.748 225.564 204.994 228.511 203.583Z" fill="#66A9D3" stroke="#001624" stroke-width="3" stroke-miterlimit="10"/>
<path d="M251.642 167.055C254.59 165.644 255.835 162.111 254.424 159.163C253.013 156.216 249.48 154.97 246.532 156.381C243.585 157.792 242.339 161.326 243.75 164.273C245.161 167.221 248.695 168.466 251.642 167.055Z" fill="#66A9D3" stroke="#001624" stroke-width="3" stroke-miterlimit="10"/>
<path d="M287.281 169.74C290.228 168.329 291.474 164.796 290.063 161.848C288.652 158.901 285.118 157.655 282.171 159.066C279.223 160.477 277.978 164.011 279.389 166.958C280.8 169.906 284.333 171.151 287.281 169.74Z" fill="#66A9D3" stroke="#001624" stroke-width="3" stroke-miterlimit="10"/>
<path d="M229.104 193.24L246.327 166.069" stroke="#001624" stroke-width="3" stroke-miterlimit="10"/>
<path d="M311.302 132.972C314.25 131.561 315.495 128.028 314.084 125.08C312.673 122.133 309.14 120.887 306.192 122.298C303.245 123.71 301.999 127.243 303.41 130.19C304.822 133.138 308.355 134.384 311.302 132.972Z" fill="#66A9D3" stroke="#001624" stroke-width="3" stroke-miterlimit="10"/>
<path d="M288.776 159.162L305.995 131.981" stroke="#001624" stroke-width="3" stroke-miterlimit="10"/>
<path d="M254.562 162.126L279.747 164.031" stroke="#001624" stroke-width="3" stroke-miterlimit="10"/>
<mask id="path-30-inside-1_864_1184" fill="white">
<path d="M286.435 301.44H274.104C272.857 296.807 271 292.407 268.65 288.335L277.383 279.602C279.172 277.813 279.172 274.902 277.383 273.103L263.66 259.38C261.928 257.649 258.892 257.649 257.161 259.38L248.437 268.103C244.366 265.753 239.965 263.916 235.313 262.668V250.337C235.313 247.803 233.253 245.743 230.72 245.743H211.309C208.776 245.743 206.716 247.803 206.716 250.337V262.668C202.064 263.916 197.663 265.753 193.592 268.103L184.868 259.38C183.07 257.591 180.149 257.591 178.369 259.38L164.646 273.103C162.847 274.902 162.847 277.823 164.646 279.602L173.379 288.335C171.029 292.407 169.172 296.807 167.925 301.44H155.594C153.06 301.44 151 303.5 151 306.034V325.444C151 327.977 153.06 330.037 155.594 330.037H167.925C169.172 334.67 171.029 339.07 173.379 343.142L164.646 351.875C162.847 353.674 162.847 356.594 164.646 358.374L178.369 372.117C179.259 373.006 180.449 373.461 181.609 373.461C182.77 373.461 183.969 373.016 184.868 372.117L193.602 363.384C197.673 365.734 202.074 367.571 206.706 368.819V381.15C206.706 383.683 208.766 385.743 211.3 385.743H230.71C233.244 385.743 235.304 383.683 235.304 381.15V368.819C239.936 367.571 244.337 365.734 248.408 363.384L257.141 372.117C258.031 373.006 259.22 373.461 260.381 373.461C261.542 373.461 262.741 373.016 263.64 372.117L277.364 358.374C279.153 356.585 279.153 353.674 277.364 351.875L268.631 343.142C270.981 339.07 272.838 334.67 274.085 330.037H286.416C288.95 330.037 291.01 327.977 291.01 325.444V306.034C291.01 303.5 288.95 301.44 286.416 301.44H286.435ZM287.093 325.453C287.093 325.821 286.793 326.111 286.435 326.111H270.99C270.71 327.436 270.391 328.751 270.004 330.047C268.969 333.635 267.538 337.049 265.758 340.27C265.11 341.469 264.404 342.62 263.669 343.751L266.503 346.585L274.598 354.68C274.849 354.941 274.849 355.366 274.598 355.608L260.874 369.331C260.613 369.593 260.207 369.593 259.946 369.331L249.017 358.403C247.886 359.148 246.716 359.844 245.526 360.492C242.325 362.262 238.901 363.693 235.323 364.738C234.037 365.134 232.721 365.444 231.387 365.724V381.169C231.387 381.536 231.087 381.827 230.729 381.827H211.319C210.952 381.827 210.662 381.536 210.662 381.169V365.724C209.317 365.444 208.012 365.134 206.725 364.738C203.137 363.703 199.723 362.271 196.522 360.492C195.323 359.844 194.162 359.148 193.031 358.403L182.103 369.331C181.841 369.593 181.435 369.593 181.174 369.331L167.451 355.608C167.19 355.357 167.19 354.941 167.451 354.68L175.545 346.585L178.379 343.751C177.644 342.62 176.938 341.469 176.29 340.27C174.52 337.049 173.089 333.635 172.044 330.047C171.667 328.751 171.339 327.436 171.058 326.111H155.613C155.246 326.111 154.956 325.821 154.956 325.453V306.043C154.956 305.685 155.246 305.386 155.613 305.386H171.058C171.339 304.041 171.658 302.736 172.044 301.449C173.079 297.861 174.511 294.447 176.29 291.227C176.938 290.047 177.644 288.877 178.379 287.745L167.451 276.817C167.19 276.565 167.19 276.15 167.451 275.888L181.174 262.165C181.309 262.03 181.464 261.981 181.638 261.981C181.812 261.981 181.977 262.03 182.112 262.165L193.041 273.094C194.172 272.358 195.323 271.662 196.522 271.005C199.723 269.235 203.157 267.803 206.745 266.759C208.031 266.382 209.346 266.053 210.681 265.772V250.328C210.681 249.97 210.971 249.67 211.339 249.67H230.749C231.106 249.67 231.406 249.97 231.406 250.328V265.772C232.75 266.053 234.056 266.372 235.342 266.759C238.93 267.794 242.354 269.225 245.565 271.005C246.764 271.662 247.915 272.358 249.046 273.094L259.975 262.165C260.149 261.991 260.342 261.981 260.439 261.981C260.545 261.981 260.739 261.991 260.913 262.165L274.636 275.888C274.888 276.15 274.888 276.575 274.636 276.817L263.708 287.745C264.443 288.877 265.149 290.047 265.797 291.227C267.567 294.447 268.998 297.861 270.043 301.449C270.42 302.736 270.749 304.051 271.029 305.386H286.474C286.832 305.386 287.132 305.685 287.132 306.043V325.453H287.093Z"/>
</mask>
<path d="M286.435 301.44H274.104C272.857 296.807 271 292.407 268.65 288.335L277.383 279.602C279.172 277.813 279.172 274.902 277.383 273.103L263.66 259.38C261.928 257.649 258.892 257.649 257.161 259.38L248.437 268.103C244.366 265.753 239.965 263.916 235.313 262.668V250.337C235.313 247.803 233.253 245.743 230.72 245.743H211.309C208.776 245.743 206.716 247.803 206.716 250.337V262.668C202.064 263.916 197.663 265.753 193.592 268.103L184.868 259.38C183.07 257.591 180.149 257.591 178.369 259.38L164.646 273.103C162.847 274.902 162.847 277.823 164.646 279.602L173.379 288.335C171.029 292.407 169.172 296.807 167.925 301.44H155.594C153.06 301.44 151 303.5 151 306.034V325.444C151 327.977 153.06 330.037 155.594 330.037H167.925C169.172 334.67 171.029 339.07 173.379 343.142L164.646 351.875C162.847 353.674 162.847 356.594 164.646 358.374L178.369 372.117C179.259 373.006 180.449 373.461 181.609 373.461C182.77 373.461 183.969 373.016 184.868 372.117L193.602 363.384C197.673 365.734 202.074 367.571 206.706 368.819V381.15C206.706 383.683 208.766 385.743 211.3 385.743H230.71C233.244 385.743 235.304 383.683 235.304 381.15V368.819C239.936 367.571 244.337 365.734 248.408 363.384L257.141 372.117C258.031 373.006 259.22 373.461 260.381 373.461C261.542 373.461 262.741 373.016 263.64 372.117L277.364 358.374C279.153 356.585 279.153 353.674 277.364 351.875L268.631 343.142C270.981 339.07 272.838 334.67 274.085 330.037H286.416C288.95 330.037 291.01 327.977 291.01 325.444V306.034C291.01 303.5 288.95 301.44 286.416 301.44H286.435ZM287.093 325.453C287.093 325.821 286.793 326.111 286.435 326.111H270.99C270.71 327.436 270.391 328.751 270.004 330.047C268.969 333.635 267.538 337.049 265.758 340.27C265.11 341.469 264.404 342.62 263.669 343.751L266.503 346.585L274.598 354.68C274.849 354.941 274.849 355.366 274.598 355.608L260.874 369.331C260.613 369.593 260.207 369.593 259.946 369.331L249.017 358.403C247.886 359.148 246.716 359.844 245.526 360.492C242.325 362.262 238.901 363.693 235.323 364.738C234.037 365.134 232.721 365.444 231.387 365.724V381.169C231.387 381.536 231.087 381.827 230.729 381.827H211.319C210.952 381.827 210.662 381.536 210.662 381.169V365.724C209.317 365.444 208.012 365.134 206.725 364.738C203.137 363.703 199.723 362.271 196.522 360.492C195.323 359.844 194.162 359.148 193.031 358.403L182.103 369.331C181.841 369.593 181.435 369.593 181.174 369.331L167.451 355.608C167.19 355.357 167.19 354.941 167.451 354.68L175.545 346.585L178.379 343.751C177.644 342.62 176.938 341.469 176.29 340.27C174.52 337.049 173.089 333.635 172.044 330.047C171.667 328.751 171.339 327.436 171.058 326.111H155.613C155.246 326.111 154.956 325.821 154.956 325.453V306.043C154.956 305.685 155.246 305.386 155.613 305.386H171.058C171.339 304.041 171.658 302.736 172.044 301.449C173.079 297.861 174.511 294.447 176.29 291.227C176.938 290.047 177.644 288.877 178.379 287.745L167.451 276.817C167.19 276.565 167.19 276.15 167.451 275.888L181.174 262.165C181.309 262.03 181.464 261.981 181.638 261.981C181.812 261.981 181.977 262.03 182.112 262.165L193.041 273.094C194.172 272.358 195.323 271.662 196.522 271.005C199.723 269.235 203.157 267.803 206.745 266.759C208.031 266.382 209.346 266.053 210.681 265.772V250.328C210.681 249.97 210.971 249.67 211.339 249.67H230.749C231.106 249.67 231.406 249.97 231.406 250.328V265.772C232.75 266.053 234.056 266.372 235.342 266.759C238.93 267.794 242.354 269.225 245.565 271.005C246.764 271.662 247.915 272.358 249.046 273.094L259.975 262.165C260.149 261.991 260.342 261.981 260.439 261.981C260.545 261.981 260.739 261.991 260.913 262.165L274.636 275.888C274.888 276.15 274.888 276.575 274.636 276.817L263.708 287.745C264.443 288.877 265.149 290.047 265.797 291.227C267.567 294.447 268.998 297.861 270.043 301.449C270.42 302.736 270.749 304.051 271.029 305.386H286.474C286.832 305.386 287.132 305.685 287.132 306.043V325.453H287.093Z" fill="#001624" stroke="#001624" stroke-width="2" mask="url(#path-30-inside-1_864_1184)"/>
<path d="M195.031 315.734C195.031 301.406 206.693 289.744 221.021 289.744C235.348 289.744 247.01 301.406 247.01 315.734C247.01 330.061 235.348 341.723 221.021 341.723C206.693 341.723 195.031 330.061 195.031 315.734ZM197.967 315.734C197.967 328.447 208.307 338.787 221.021 338.787C233.734 338.787 244.074 328.437 244.074 315.734C244.074 303.03 233.734 292.681 221.021 292.681C208.307 292.681 197.967 303.02 197.967 315.734Z" fill="#10251B" stroke="#001624"/>
<path d="M172.007 330.038C171.62 328.742 171.301 327.426 171.02 326.101H155.576C155.208 326.101 154.918 325.811 154.918 325.444V306.034C154.918 305.676 155.208 305.376 155.576 305.376L172.007 330.038ZM172.007 330.038C173.042 333.626 174.473 337.039 176.253 340.26L172.007 330.038ZM265.721 340.26C265.073 341.459 264.367 342.61 263.632 343.742L266.465 346.575L274.56 354.67C274.812 354.931 274.812 355.347 274.56 355.598L260.837 369.322C260.576 369.583 260.169 369.583 259.908 369.322L265.721 340.26ZM265.721 340.26C267.491 337.039 268.922 333.626 269.966 330.038M265.721 340.26L269.966 330.038M269.966 330.038C270.343 328.742 270.672 327.426 270.953 326.101L269.966 330.038ZM270.502 305.478L270.585 305.876H270.991H286.398C286.435 305.876 286.474 305.892 286.507 305.924C286.54 305.957 286.555 305.997 286.555 306.034V325.444C286.555 325.53 286.484 325.601 286.398 325.601H270.953H270.548L270.464 325.998C270.186 327.311 269.86 328.614 269.486 329.898C268.452 333.45 267.035 336.83 265.282 340.019L265.281 340.022C264.641 341.206 263.943 342.345 263.212 343.469L262.992 343.809L263.278 344.095L266.112 346.929L274.2 355.017C274.201 355.018 274.201 355.018 274.202 355.019C274.268 355.09 274.259 355.193 274.207 355.245L260.483 368.968C260.447 369.005 260.407 369.018 260.373 369.018C260.338 369.018 260.298 369.005 260.262 368.968L249.333 358.04L249.045 357.752L248.705 357.976C247.585 358.713 246.437 359.402 245.251 360.043L245.246 360.045C242.077 361.807 238.698 363.223 235.147 364.248L235.147 364.248L235.138 364.25C233.872 364.64 232.583 364.946 231.247 365.225L230.849 365.308V365.715V381.159C230.849 381.246 230.778 381.317 230.692 381.317H211.282C211.19 381.317 211.124 381.251 211.124 381.159V365.715V365.309L210.727 365.225C209.399 364.946 208.1 364.64 206.835 364.25L206.828 364.248C203.285 363.214 199.896 361.797 196.727 360.045L196.724 360.043C195.545 359.401 194.387 358.712 193.268 357.976L192.928 357.752L192.64 358.04L181.711 368.968C181.675 369.005 181.635 369.018 181.601 369.018C181.566 369.018 181.527 369.005 181.49 368.968L167.767 355.245L167.76 355.238L167.753 355.232C167.733 355.213 167.717 355.183 167.717 355.142C167.717 355.1 167.733 355.057 167.767 355.024L175.861 346.929L178.695 344.095L178.981 343.809L178.761 343.469C178.03 342.345 177.332 341.206 176.693 340.022L176.69 340.018C174.928 336.829 173.511 333.45 172.487 329.899L172.486 329.895C172.104 328.615 171.788 327.313 171.51 325.998L171.426 325.601H171.02H155.576C155.484 325.601 155.418 325.535 155.418 325.444V306.034C155.418 305.947 155.489 305.876 155.576 305.876H171.02H171.426L171.51 305.479C171.788 304.156 172.113 302.854 172.487 301.581L172.487 301.58C173.521 298.028 174.938 294.648 176.691 291.458L176.691 291.458C177.332 290.29 178.032 289.13 178.761 288.008L178.981 287.669L178.695 287.382L167.767 276.454L167.76 276.447L167.753 276.441C167.733 276.422 167.717 276.392 167.717 276.35C167.717 276.309 167.733 276.266 167.767 276.233L181.49 262.509C181.509 262.49 181.522 262.484 181.53 262.481C181.539 262.477 181.56 262.472 181.601 262.472C181.642 262.472 181.667 262.478 181.681 262.483C181.694 262.487 181.706 262.494 181.721 262.509L192.65 273.438L192.936 273.724L193.275 273.503C194.398 272.774 195.538 272.084 196.725 271.433L196.727 271.432C199.905 269.671 203.294 268.254 206.846 267.23L206.846 267.23L206.851 267.228C208.121 266.846 209.412 266.531 210.745 266.252L211.143 266.169V265.763V250.318C211.143 250.232 211.214 250.16 211.301 250.16H230.711C230.748 250.16 230.788 250.176 230.82 250.209C230.853 250.241 230.869 250.281 230.869 250.318V265.763V266.169L231.266 266.252C232.588 266.53 233.891 266.856 235.164 267.229L235.165 267.229C238.718 268.264 242.117 269.681 245.285 271.433L245.287 271.433C246.474 272.084 247.614 272.774 248.737 273.503L249.076 273.724L249.362 273.438L260.291 262.509C260.312 262.488 260.328 262.481 260.34 262.478C260.355 262.474 260.372 262.472 260.402 262.472C260.438 262.472 260.458 262.474 260.474 262.479C260.485 262.482 260.501 262.488 260.522 262.509L274.239 276.226C274.239 276.227 274.24 276.227 274.241 276.228C274.307 276.299 274.297 276.402 274.245 276.454L263.317 287.382L263.03 287.669L263.251 288.008C263.98 289.13 264.68 290.29 265.321 291.458L265.322 291.459C267.084 294.648 268.5 298.027 269.525 301.578L269.526 301.584C269.908 302.853 270.224 304.145 270.502 305.478ZM194.021 315.744C194.021 330.623 206.131 342.733 221.011 342.733C235.89 342.733 248 330.623 248 315.744C248 300.864 235.89 288.754 221.011 288.754C206.131 288.754 194.021 300.864 194.021 315.744Z" fill="#95D6B7" stroke="#001624"/>
<path d="M171.49 13V2" stroke="#4DA9FF" stroke-width="3" stroke-miterlimit="10" stroke-linecap="round"/>
<path d="M177.49 7H165.49" stroke="#4DA9FF" stroke-width="3" stroke-miterlimit="10" stroke-linecap="round"/>
<path d="M522.442 24.1582C522.994 20.7568 520.685 17.5518 517.283 16.9997C513.882 16.4476 510.677 18.7574 510.125 22.1588C509.573 25.5602 511.882 28.7652 515.284 29.3173C518.685 29.8695 521.89 27.5597 522.442 24.1582Z" stroke="#4EBB87" stroke-width="3" stroke-miterlimit="10" stroke-linecap="round"/>
<path d="M194 510V499" stroke="#4DA9FF" stroke-width="3" stroke-miterlimit="10" stroke-linecap="round"/>
<path d="M200 504H188" stroke="#4DA9FF" stroke-width="3" stroke-miterlimit="10" stroke-linecap="round"/>
<path d="M276.635 428.32C276.647 424.091 280.086 420.673 284.314 420.686C288.543 420.698 291.961 424.137 291.948 428.365C291.936 432.594 288.498 436.012 284.269 435.999C280.04 435.987 276.622 432.549 276.635 428.32Z" stroke="#FF8368" stroke-width="3" stroke-miterlimit="10" stroke-linecap="round"/>
<path d="M8.2793 269.439V258" stroke="#F9B8B8" stroke-width="3" stroke-miterlimit="10" stroke-linecap="round"/>
<path d="M14.5591 263.72H2" stroke="#F9B8B8" stroke-width="3" stroke-miterlimit="10" stroke-linecap="round"/>
</svg>
