<svg width="61" height="61" viewBox="0 0 61 61" fill="none" xmlns="http://www.w3.org/2000/svg">
<path d="M36.4472 45.1505C36.164 45.1505 35.8764 45.062 35.6374 44.885L30.8897 41.4337L26.1419 44.885C25.6551 45.239 25.0047 45.239 24.518 44.885C24.0313 44.531 23.8321 43.9116 24.018 43.3408L25.8321 37.7611L21.0843 34.3098C20.5976 33.9558 20.3985 33.3364 20.5843 32.7656C20.7702 32.1948 21.2967 31.8098 21.8985 31.8098H27.7658L29.5799 26.2302C29.7658 25.6594 30.2923 25.2744 30.8941 25.2744C31.4959 25.2744 32.0224 25.6594 32.2082 26.2302L34.0224 31.8098H39.8897C40.4914 31.8098 41.018 32.1948 41.2038 32.7656C41.3897 33.3364 41.1861 33.9558 40.7038 34.3098L35.956 37.7611L37.7702 43.3408C37.956 43.9116 37.7525 44.531 37.2702 44.885C37.0268 45.062 36.7436 45.1505 36.4605 45.1505H36.4472ZM23.0888 33.5841L27.0976 36.4957C27.5843 36.8496 27.7835 37.4691 27.5976 38.0399L26.0666 42.7523L30.0755 39.8408C30.5622 39.4868 31.2127 39.4868 31.6994 39.8408L35.7082 42.7523L34.1773 38.0399C33.9914 37.4691 34.195 36.8496 34.6773 36.4957L38.6861 33.5841H33.7304C33.1286 33.5841 32.602 33.1992 32.4162 32.6284L30.8852 27.916L29.3543 32.6284C29.1684 33.1992 28.6419 33.5841 28.0401 33.5841H23.0843H23.0888Z" fill="white"/>
<path d="M39.5 17.6372L45.7743 5.80089C46.0885 5.20796 45.6593 4.5 44.9956 4.5H32.9867C32.6593 4.5 32.354 4.68584 32.2035 4.97788L29.8496 9.50443L27.4956 4.97788C27.3451 4.68584 27.0398 4.5 26.7124 4.5H14.7035C14.0354 4.5 13.6062 5.21239 13.9204 5.80089L20.6504 18.4867C14.5841 22.0221 10.5 28.6018 10.5 36.115C10.5 47.354 19.646 56.5 30.885 56.5C42.1239 56.5 51.2699 47.354 51.2699 36.115C51.2699 27.9469 46.4469 20.8894 39.5 17.6372ZM33.5265 6.26991H43.5221L37.8584 16.9558C36.3628 16.4071 34.7832 16.031 33.1504 15.854L30.8451 11.4204L33.5265 6.26991ZM16.1726 6.26991H26.1726L28.8496 11.4204L29.8496 13.3407L31.0885 15.7301C31.0221 15.7257 30.9513 15.7257 30.885 15.7257C30.0885 15.7257 29.3053 15.7699 28.5354 15.8628C27.792 15.9469 27.0619 16.0708 26.3451 16.2345C25.0044 16.5398 23.7124 16.9823 22.4867 17.5398H22.146L16.1726 6.26991ZM30.885 54.7301C20.6195 54.7301 12.2699 46.3761 12.2699 36.115C12.2699 28.7124 16.6106 22.3053 22.8805 19.3097C23.6372 18.9425 24.4248 18.6327 25.2345 18.3761C26.6239 17.9292 28.0841 17.646 29.5929 17.5398C30.0177 17.5088 30.4513 17.4956 30.885 17.4956C31.2699 17.4956 31.6504 17.5088 32.0265 17.531C32.0796 17.531 32.1283 17.531 32.177 17.5398C32.8451 17.5841 33.5044 17.6681 34.1549 17.7832C35.7389 18.0664 37.2522 18.5487 38.6726 19.2035C45.0575 22.1593 49.5 28.6283 49.5 36.115C49.5 46.3761 41.1504 54.7301 30.885 54.7301Z" fill="white"/>
</svg>
