<svg width="61" height="61" viewBox="0 0 61 61" fill="none" xmlns="http://www.w3.org/2000/svg">
<path d="M28.8145 13.0481C20.9025 13.6408 14.449 19.9189 13.6574 27.8113C12.9126 35.2397 17.1279 41.8024 23.3826 44.5827V53.3525C23.3826 53.7854 23.7335 54.1324 24.1624 54.1324H25.886V56.1718C25.886 56.3863 26.0615 56.5617 26.2759 56.5617H33.8759C34.0904 56.5617 34.2659 56.3863 34.2659 56.1718V54.1324H35.9894C36.4222 54.1324 36.7693 53.7854 36.7693 53.3525V44.5827C42.5443 42.0091 46.5763 36.2185 46.5763 29.5036C46.5763 19.9852 38.4811 12.3267 28.8145 13.0481ZM32.7061 55.002H27.4458V54.1441H32.7061V55.002ZM35.2095 52.1827C35.2095 52.4011 35.0379 52.5726 34.8196 52.5726H25.3323C25.1178 52.5726 24.9423 52.4011 24.9423 52.1827V50.6112H35.2095V52.1827ZM35.2095 49.0514H24.9423V47.324H35.2095V49.0514ZM36.7693 42.8553C36.3481 43.0697 35.9075 43.2686 35.4591 43.4402C35.3109 43.4987 35.2095 43.643 35.2095 43.8028V45.7642H30.8578V40.812L33.3105 38.3592C33.6146 38.0551 33.6146 37.5599 33.3105 37.2557C33.0063 36.9515 32.5111 36.9515 32.2069 37.2557L30.0857 39.3809L27.9488 37.244C27.6446 36.9398 27.1494 36.9398 26.8452 37.244C26.5411 37.5482 26.5411 38.0395 26.8452 38.3475L29.298 40.8003V45.7642H24.9423V43.8028C24.9423 43.643 24.8449 43.4987 24.6928 43.4402C24.2482 43.2686 23.8076 43.0736 23.3826 42.8553C18.3328 40.3206 14.913 35.0018 15.1431 28.9265C15.4317 21.3734 21.4563 15.1304 29.0016 14.6001C37.7246 13.9878 45.0166 20.9093 45.0166 29.5036C45.0166 35.3333 41.6553 40.3986 36.7693 42.8553Z" fill="white"/>
<path d="M30.0777 10.006C29.6488 10.006 29.2979 9.65504 29.2979 9.2261V5.27988C29.2979 4.85095 29.6488 4.5 30.0777 4.5C30.5067 4.5 30.8576 4.85095 30.8576 5.27988V9.2261C30.8576 9.65504 30.5067 10.006 30.0777 10.006Z" fill="white"/>
<path d="M44.3932 15.9334C44.1943 15.9334 43.9954 15.8554 43.8434 15.7033C43.5392 15.3991 43.5392 14.9039 43.8434 14.5998L46.3156 12.1275C46.6197 11.8234 47.115 11.8234 47.4191 12.1275C47.7233 12.4317 47.7233 12.9269 47.4191 13.2311L44.9469 15.7033C44.7948 15.8554 44.5959 15.9334 44.3971 15.9334H44.3932Z" fill="white"/>
<path d="M53.7826 30.2834H50.2887C49.8597 30.2834 49.5088 29.9325 49.5088 29.5035C49.5088 29.0746 49.8597 28.7236 50.2887 28.7236H53.7826C54.2115 28.7236 54.5624 29.0746 54.5624 29.5035C54.5624 29.9325 54.2115 30.2834 53.7826 30.2834Z" fill="white"/>
<path d="M46.8615 47.0662C46.6626 47.0662 46.4638 46.9882 46.3117 46.8361L43.8394 44.3639C43.5353 44.0597 43.5353 43.5645 43.8394 43.2603C44.1436 42.9562 44.6388 42.9562 44.943 43.2603L47.4152 45.7326C47.7194 46.0367 47.7194 46.532 47.4152 46.8361C47.2631 46.9882 47.0643 47.0662 46.8654 47.0662H46.8615Z" fill="white"/>
<path d="M15.7365 15.9373C15.5376 15.9373 15.3388 15.8593 15.1867 15.7072L12.7144 13.235C12.4103 12.9308 12.4103 12.4356 12.7144 12.1314C13.0186 11.8273 13.5138 11.8273 13.818 12.1314L16.2902 14.6037C16.5944 14.9078 16.5944 15.4031 16.2902 15.7072C16.1382 15.8593 15.9393 15.9373 15.7404 15.9373H15.7365Z" fill="white"/>
<path d="M9.77377 30.2834H6.27988C5.85095 30.2834 5.5 29.9325 5.5 29.5035C5.5 29.0746 5.85095 28.7236 6.27988 28.7236H9.77377C10.2027 28.7236 10.5537 29.0746 10.5537 29.5035C10.5537 29.9325 10.2027 30.2834 9.77377 30.2834Z" fill="white"/>
<path d="M13.2838 47.074C13.0849 47.074 12.8861 46.996 12.734 46.8439C12.4298 46.5398 12.4298 46.0445 12.734 45.7404L15.2062 43.2682C15.5104 42.964 16.0056 42.964 16.3098 43.2682C16.6139 43.5723 16.6139 44.0675 16.3098 44.3717L13.8375 46.8439C13.6854 46.996 13.4866 47.074 13.2877 47.074H13.2838Z" fill="white"/>
</svg>
