<svg width="485" height="512" viewBox="0 0 485 512" fill="none" xmlns="http://www.w3.org/2000/svg">
<path d="M182.142 213.685L166.972 213.393L163.069 205.202L167.278 197.167L182.449 197.46C181.706 195.985 180.718 194.586 179.524 193.346C172.938 186.503 162.026 186.293 155.186 192.876C153.946 194.07 152.948 195.389 152.15 196.794L125.622 196.282C124.878 194.848 123.91 193.47 122.736 192.25C116.15 185.407 105.239 185.197 98.3986 191.78C97.138 192.993 96.1185 194.333 95.3202 195.779L110.491 196.071L114.394 204.262L110.184 212.296L95.0133 212.004C95.7564 213.479 96.7444 214.878 97.9383 216.118C104.524 222.961 115.436 223.171 122.276 216.588C123.516 215.394 124.515 214.074 125.312 212.67L151.84 213.182C152.584 214.616 153.552 215.994 154.726 217.214C161.312 224.057 172.224 224.267 179.064 217.684C180.324 216.47 181.344 215.131 182.142 213.685V213.685Z" fill="#FF8368" stroke="#020303" stroke-width="4" stroke-linecap="round" stroke-linejoin="round"/>
<path d="M191.265 367.745L227.951 367.752" stroke="#001624" stroke-width="4" stroke-linecap="round" stroke-linejoin="round"/>
<path d="M176.159 369.9L176.159 365.584L189.106 361.27L189.108 374.218L176.159 369.9Z" fill="#FFD467" stroke="#001624" stroke-width="4" stroke-linecap="round" stroke-linejoin="round"/>
<path d="M245.321 357.462C241.825 357.461 238.825 355.496 237.271 352.604L227.948 352.646L227.954 382.858L237.277 382.903C238.83 380.011 241.829 378.048 245.325 378.049C248.821 378.049 251.821 380.014 253.375 382.906L264.812 382.908C273.185 382.91 279.96 376.135 279.959 367.762C279.957 359.389 273.18 352.611 264.807 352.61L253.369 352.608C251.816 355.499 248.817 357.462 245.321 357.462Z" fill="#00B7EF" stroke="#001624" stroke-width="4" stroke-linecap="round" stroke-linejoin="round"/>
<path d="M268.953 367.76L243.057 367.755" stroke="#001624" stroke-width="4" stroke-linecap="round" stroke-linejoin="round"/>
<mask id="path-6-inside-1_864_1183" fill="white">
<path d="M382.469 101.363H372.871C371.902 97.7478 370.46 94.3261 368.631 91.1627L375.432 84.3623C376.83 82.9635 376.83 80.7038 375.432 79.305L364.736 68.6095C363.38 67.2537 361.013 67.2537 359.679 68.6095L352.878 75.4098C349.715 73.5806 346.272 72.1388 342.656 71.1704V61.5723C342.656 59.5924 341.042 58 339.084 58H323.955C321.975 58 320.383 59.614 320.383 61.5723V71.1704C316.767 72.1388 313.346 73.5806 310.161 75.4098L303.36 68.6095C301.962 67.2107 299.68 67.2107 298.303 68.6095L287.608 79.305C286.209 80.7038 286.209 82.985 287.608 84.3623L294.408 91.1627C292.579 94.3261 291.137 97.7693 290.168 101.363H280.57C278.59 101.363 276.998 102.977 276.998 104.936V120.064C276.998 122.044 278.612 123.637 280.57 123.637H290.168C291.137 127.252 292.579 130.674 294.408 133.837L287.608 140.638C286.209 142.037 286.209 144.318 287.608 145.695L298.303 156.391C298.992 157.079 299.917 157.423 300.821 157.423C301.725 157.423 302.672 157.079 303.36 156.391L310.161 149.59C313.324 151.419 316.767 152.861 320.361 153.83V163.428C320.361 165.408 321.975 167 323.934 167H339.062C341.042 167 342.635 165.386 342.635 163.428V153.83C346.25 152.861 349.672 151.419 352.835 149.59L359.636 156.391C360.324 157.079 361.25 157.423 362.154 157.423C363.057 157.423 364.004 157.079 364.693 156.391L375.389 145.695C376.787 144.296 376.787 142.037 375.389 140.638L368.588 133.837C370.417 130.674 371.859 127.231 372.828 123.637H382.426C384.406 123.637 385.998 122.023 385.998 120.064V104.936C385.998 102.956 384.384 101.363 382.426 101.363H382.469ZM382.985 120.064C382.985 120.344 382.749 120.581 382.469 120.581H370.439C370.224 121.614 369.966 122.647 369.664 123.658C368.846 126.456 367.749 129.103 366.35 131.621C365.855 132.546 365.296 133.45 364.715 134.332L366.931 136.549L373.237 142.854C373.43 143.07 373.43 143.392 373.237 143.586L362.541 154.282C362.326 154.497 362.025 154.497 361.809 154.282L353.309 145.781C352.427 146.362 351.523 146.9 350.597 147.417C348.101 148.794 345.432 149.913 342.656 150.731C341.645 151.032 340.633 151.29 339.579 151.505V163.535C339.579 163.815 339.342 164.052 339.062 164.052H323.934C323.654 164.052 323.417 163.837 323.417 163.535V151.505C322.384 151.29 321.351 151.053 320.34 150.731C317.542 149.913 314.895 148.815 312.399 147.417C311.473 146.922 310.548 146.384 309.687 145.781L301.187 154.282C300.972 154.497 300.67 154.497 300.455 154.282L289.76 143.586C289.544 143.392 289.544 143.07 289.76 142.854L296.065 136.549L298.282 134.332C297.7 133.45 297.162 132.546 296.646 131.621C295.269 129.124 294.15 126.456 293.332 123.658C293.031 122.647 292.772 121.614 292.557 120.581H280.527C280.248 120.581 280.011 120.366 280.011 120.064V104.936C280.011 104.656 280.226 104.419 280.527 104.419H292.557C292.772 103.386 293.031 102.353 293.332 101.342C294.15 98.5441 295.247 95.8972 296.646 93.3793C297.141 92.4539 297.7 91.5501 298.282 90.6677L289.781 82.1672C289.566 81.9735 289.566 81.6507 289.781 81.4355L300.477 70.74C300.477 70.74 300.692 70.5893 300.842 70.5893C300.993 70.5893 301.101 70.6324 301.208 70.74L309.709 79.2405C310.591 78.6594 311.495 78.1214 312.42 77.6049C314.917 76.2276 317.585 75.1086 320.383 74.2908C321.394 73.9896 322.406 73.7312 323.46 73.516V61.4863C323.46 61.2065 323.675 60.9698 323.977 60.9698H339.105C339.385 60.9698 339.622 61.2065 339.622 61.4863V73.516C340.655 73.7312 341.688 73.9896 342.699 74.2908C345.497 75.1086 348.165 76.2061 350.662 77.6049C351.587 78.1214 352.491 78.6594 353.373 79.2405L361.874 70.74C362.003 70.6108 362.154 70.5893 362.24 70.5893C362.326 70.5893 362.476 70.5893 362.606 70.74L373.301 81.4355C373.495 81.6507 373.495 81.9735 373.301 82.1672L364.801 90.6677C365.382 91.5501 365.92 92.4539 366.436 93.3793C367.814 95.8756 368.933 98.5441 369.75 101.342C370.052 102.353 370.31 103.365 370.525 104.419H382.555C382.835 104.419 383.071 104.656 383.071 104.936V120.064H382.985Z"/>
</mask>
<path d="M382.469 101.363H372.871C371.902 97.7478 370.46 94.3261 368.631 91.1627L375.432 84.3623C376.83 82.9635 376.83 80.7038 375.432 79.305L364.736 68.6095C363.38 67.2537 361.013 67.2537 359.679 68.6095L352.878 75.4098C349.715 73.5806 346.272 72.1388 342.656 71.1704V61.5723C342.656 59.5924 341.042 58 339.084 58H323.955C321.975 58 320.383 59.614 320.383 61.5723V71.1704C316.767 72.1388 313.346 73.5806 310.161 75.4098L303.36 68.6095C301.962 67.2107 299.68 67.2107 298.303 68.6095L287.608 79.305C286.209 80.7038 286.209 82.985 287.608 84.3623L294.408 91.1627C292.579 94.3261 291.137 97.7693 290.168 101.363H280.57C278.59 101.363 276.998 102.977 276.998 104.936V120.064C276.998 122.044 278.612 123.637 280.57 123.637H290.168C291.137 127.252 292.579 130.674 294.408 133.837L287.608 140.638C286.209 142.037 286.209 144.318 287.608 145.695L298.303 156.391C298.992 157.079 299.917 157.423 300.821 157.423C301.725 157.423 302.672 157.079 303.36 156.391L310.161 149.59C313.324 151.419 316.767 152.861 320.361 153.83V163.428C320.361 165.408 321.975 167 323.934 167H339.062C341.042 167 342.635 165.386 342.635 163.428V153.83C346.25 152.861 349.672 151.419 352.835 149.59L359.636 156.391C360.324 157.079 361.25 157.423 362.154 157.423C363.057 157.423 364.004 157.079 364.693 156.391L375.389 145.695C376.787 144.296 376.787 142.037 375.389 140.638L368.588 133.837C370.417 130.674 371.859 127.231 372.828 123.637H382.426C384.406 123.637 385.998 122.023 385.998 120.064V104.936C385.998 102.956 384.384 101.363 382.426 101.363H382.469ZM382.985 120.064C382.985 120.344 382.749 120.581 382.469 120.581H370.439C370.224 121.614 369.966 122.647 369.664 123.658C368.846 126.456 367.749 129.103 366.35 131.621C365.855 132.546 365.296 133.45 364.715 134.332L366.931 136.549L373.237 142.854C373.43 143.07 373.43 143.392 373.237 143.586L362.541 154.282C362.326 154.497 362.025 154.497 361.809 154.282L353.309 145.781C352.427 146.362 351.523 146.9 350.597 147.417C348.101 148.794 345.432 149.913 342.656 150.731C341.645 151.032 340.633 151.29 339.579 151.505V163.535C339.579 163.815 339.342 164.052 339.062 164.052H323.934C323.654 164.052 323.417 163.837 323.417 163.535V151.505C322.384 151.29 321.351 151.053 320.34 150.731C317.542 149.913 314.895 148.815 312.399 147.417C311.473 146.922 310.548 146.384 309.687 145.781L301.187 154.282C300.972 154.497 300.67 154.497 300.455 154.282L289.76 143.586C289.544 143.392 289.544 143.07 289.76 142.854L296.065 136.549L298.282 134.332C297.7 133.45 297.162 132.546 296.646 131.621C295.269 129.124 294.15 126.456 293.332 123.658C293.031 122.647 292.772 121.614 292.557 120.581H280.527C280.248 120.581 280.011 120.366 280.011 120.064V104.936C280.011 104.656 280.226 104.419 280.527 104.419H292.557C292.772 103.386 293.031 102.353 293.332 101.342C294.15 98.5441 295.247 95.8972 296.646 93.3793C297.141 92.4539 297.7 91.5501 298.282 90.6677L289.781 82.1672C289.566 81.9735 289.566 81.6507 289.781 81.4355L300.477 70.74C300.477 70.74 300.692 70.5893 300.842 70.5893C300.993 70.5893 301.101 70.6324 301.208 70.74L309.709 79.2405C310.591 78.6594 311.495 78.1214 312.42 77.6049C314.917 76.2276 317.585 75.1086 320.383 74.2908C321.394 73.9896 322.406 73.7312 323.46 73.516V61.4863C323.46 61.2065 323.675 60.9698 323.977 60.9698H339.105C339.385 60.9698 339.622 61.2065 339.622 61.4863V73.516C340.655 73.7312 341.688 73.9896 342.699 74.2908C345.497 75.1086 348.165 76.2061 350.662 77.6049C351.587 78.1214 352.491 78.6594 353.373 79.2405L361.874 70.74C362.003 70.6108 362.154 70.5893 362.24 70.5893C362.326 70.5893 362.476 70.5893 362.606 70.74L373.301 81.4355C373.495 81.6507 373.495 81.9735 373.301 82.1672L364.801 90.6677C365.382 91.5501 365.92 92.4539 366.436 93.3793C367.814 95.8756 368.933 98.5441 369.75 101.342C370.052 102.353 370.31 103.365 370.525 104.419H382.555C382.835 104.419 383.071 104.656 383.071 104.936V120.064H382.985Z" fill="#221F20" stroke="#001624" stroke-width="2" mask="url(#path-6-inside-1_864_1183)"/>
<path d="M311.371 112.511C311.371 101.403 320.401 92.3729 331.509 92.3729C342.617 92.3729 351.647 101.403 351.647 112.511C351.647 123.619 342.617 132.649 331.509 132.649C320.401 132.649 311.371 123.619 311.371 112.511ZM313.448 112.511C313.448 122.471 321.549 130.571 331.509 130.571C341.469 130.571 349.57 122.471 349.57 112.511C349.57 102.551 341.469 94.4503 331.509 94.4503C321.549 94.4503 313.448 102.551 313.448 112.511Z" fill="#221F20" stroke="#001624"/>
<path d="M370.031 104.94L369.949 104.542C369.736 103.522 369.481 102.503 369.184 101.506L369.183 101.503C368.376 98.7403 367.292 96.1278 365.912 93.6434L365.908 93.6364L365.908 93.6364C365.423 92.7292 364.872 91.8392 364.296 90.9641L364.072 90.6238L364.36 90.3356L372.859 81.8368C372.859 81.8364 372.859 81.8358 372.859 81.8351C372.859 81.834 372.859 81.8326 372.859 81.8308C372.859 81.822 372.856 81.8095 372.847 81.7968L362.165 71.1149L362.162 71.1125L362.162 71.1122L370.031 104.94ZM370.031 104.94H370.438M370.031 104.94H370.438M370.438 104.94H382.381C382.381 104.941 382.382 104.941 382.382 104.941C382.384 104.942 382.388 104.944 382.391 104.947C382.395 104.951 382.397 104.954 382.398 104.956C382.398 104.957 382.398 104.957 382.398 104.958V120.086C382.398 120.091 382.398 120.094 382.397 120.095C382.397 120.097 382.397 120.098 382.397 120.098L382.397 120.098C382.396 120.099 382.392 120.102 382.382 120.102H370.352H369.945L369.862 120.5C369.65 121.52 369.395 122.54 369.098 123.537L369.097 123.539C368.29 126.301 367.185 128.935 365.826 131.4C365.314 132.317 364.783 133.209 364.21 134.079L363.986 134.419L364.274 134.707L366.491 136.924L372.782 143.216C372.792 143.228 372.795 143.241 372.795 143.25C372.795 143.252 372.795 143.254 372.794 143.256L362.1 153.949C362.096 153.954 362.091 153.958 362.088 153.96C362.085 153.958 362.081 153.954 362.076 153.949L353.575 145.449L353.279 145.152L352.935 145.393C352.097 145.98 351.19 146.507 350.274 146.997L350.274 146.997L350.266 147.002C347.804 148.381 345.192 149.465 342.429 150.272L342.429 150.272L342.417 150.276C341.431 150.591 340.418 150.823 339.39 151.037L338.992 151.12V151.527V163.557C338.992 163.562 338.991 163.565 338.991 163.566C338.991 163.568 338.99 163.569 338.99 163.569L338.99 163.569C338.99 163.569 338.986 163.573 338.975 163.573H323.847C323.845 163.573 323.844 163.573 323.842 163.573C323.84 163.573 323.838 163.573 323.837 163.572C323.835 163.572 323.835 163.572 323.834 163.572L323.834 163.571C323.834 163.571 323.83 163.567 323.83 163.557V151.527V151.119L323.43 151.037C322.391 150.825 321.394 150.57 320.396 150.273L320.394 150.272C317.654 149.465 315.019 148.361 312.555 147.001C311.638 146.489 310.745 145.958 309.875 145.385L309.535 145.161L309.247 145.449L300.746 153.949C300.741 153.954 300.737 153.958 300.734 153.96C300.731 153.958 300.726 153.954 300.722 153.949L290.026 143.254L290.017 143.245L290.015 143.243C290.017 143.239 290.021 143.235 290.026 143.229L296.331 136.924L296.001 136.594L296.331 136.924L298.548 134.707L298.836 134.419L298.612 134.079C298.036 133.204 297.485 132.314 297 131.406L297 131.406L296.996 131.399C295.616 128.915 294.532 126.302 293.725 123.539L293.724 123.537C293.427 122.54 293.172 121.52 292.96 120.5L292.877 120.102H292.47H280.44C280.435 120.102 280.432 120.102 280.431 120.101C280.429 120.101 280.428 120.101 280.428 120.101L280.428 120.101C280.428 120.1 280.424 120.096 280.424 120.086V104.958C280.424 104.957 280.424 104.957 280.424 104.956C280.425 104.954 280.427 104.951 280.431 104.947C280.434 104.944 280.438 104.942 280.44 104.941C280.44 104.941 280.441 104.941 280.441 104.94H292.47H292.878L292.96 104.54C293.172 103.502 293.427 102.505 293.724 101.506L293.725 101.503C294.532 98.742 295.637 96.1078 296.996 93.6434C297.508 92.7263 298.039 91.8337 298.612 90.9641L298.836 90.6238L298.548 90.3356L290.048 81.8351L290.038 81.8258L290.036 81.8241C290.039 81.8206 290.042 81.8159 290.048 81.8104L300.737 71.1208C300.745 71.1244 300.754 71.1286 300.763 71.1333C300.781 71.142 300.798 71.1511 300.812 71.1593L309.268 79.6154L309.556 79.9036L309.897 79.6795C310.767 79.1067 311.66 78.575 312.577 78.0629L312.578 78.0625C315.039 76.6835 317.672 75.6 320.436 74.7921L320.439 74.7913C321.436 74.4943 322.455 74.2394 323.475 74.0269L323.873 73.944V73.5374V61.5082C323.873 61.508 323.873 61.5076 323.874 61.5071C323.875 61.505 323.877 61.5015 323.88 61.498C323.884 61.4944 323.887 61.4924 323.889 61.4915C323.89 61.4913 323.89 61.4912 323.89 61.4911H339.018C339.018 61.4912 339.018 61.4913 339.019 61.4915C339.021 61.4924 339.024 61.4944 339.028 61.498C339.032 61.5016 339.034 61.505 339.035 61.5071C339.035 61.5076 339.035 61.508 339.035 61.5082V73.5374V73.9457L339.435 74.0273C340.474 74.2393 341.471 74.4938 342.47 74.7913L342.472 74.792C345.234 75.5993 347.868 76.704 350.332 78.0636C351.249 78.5754 352.142 79.1069 353.011 79.6795L353.352 79.9036M370.438 104.94L353.352 79.9036M353.352 79.9036L353.64 79.6154M353.352 79.9036L353.64 79.6154M353.64 79.6154L362.14 71.1149C362.142 71.1133 362.144 71.1119 362.145 71.1107C362.147 71.1107 362.15 71.1107 362.153 71.1107C362.154 71.1107 362.155 71.1108 362.157 71.1111M353.64 79.6154L362.157 71.1111M362.157 71.1111C362.159 71.1113 362.161 71.1117 362.161 71.112M362.157 71.1111L362.161 71.112M362.161 71.112L362.162 71.1121L362.161 71.112ZM300.698 71.1049C300.695 71.1042 300.694 71.1038 300.694 71.1037C300.694 71.1036 300.695 71.104 300.698 71.1049ZM310.37 112.511C310.37 124.171 319.848 133.649 331.508 133.649C343.168 133.649 352.646 124.171 352.646 112.511C352.646 100.85 343.168 91.3727 331.508 91.3727C319.848 91.3727 310.37 100.85 310.37 112.511Z" fill="#F9B8B8" stroke="#001624"/>
<path d="M344.32 254.317C344.32 243.263 353.324 234.259 364.378 234.259C375.432 234.259 384.436 243.263 384.436 254.317C384.436 265.37 375.432 274.375 364.378 274.375C353.324 274.375 344.32 265.37 344.32 254.317ZM346.381 254.317C346.381 264.238 354.457 272.314 364.378 272.314C374.3 272.314 382.376 264.238 382.376 254.317C382.376 244.395 374.3 236.319 364.378 236.319C354.457 236.319 346.381 244.395 346.381 254.317Z" fill="#221F20" stroke="#001624"/>
<path d="M402.357 265.399C401.553 268.181 400.44 270.825 399.064 273.329C398.57 274.256 398.013 275.153 397.441 276.034L399.636 278.229L405.912 284.504C406.113 284.705 406.113 285.03 405.912 285.231L395.262 295.881C395.061 296.082 394.736 296.082 394.536 295.881L386.065 287.41C385.199 287.997 384.287 288.539 383.36 289.033C380.871 290.409 378.228 291.522 375.446 292.326C374.441 292.619 373.421 292.867 372.385 293.083V305.062C372.385 305.34 372.154 305.572 371.875 305.572H356.82C356.542 305.572 356.31 305.34 356.31 305.062V293.083C355.274 292.882 354.254 292.635 353.25 292.326C350.467 291.522 347.824 290.409 345.335 289.033C344.408 288.539 343.511 287.997 342.63 287.41L334.16 295.881C333.959 296.082 333.634 296.082 333.433 295.881L322.783 285.231C322.582 285.03 322.582 284.705 322.783 284.504L329.059 278.229L331.254 276.034C330.682 275.153 330.126 274.256 329.631 273.329C328.255 270.825 327.142 268.181 326.339 265.399C326.045 264.394 325.798 263.374 325.581 262.339H313.602C313.324 262.339 313.092 262.107 313.092 261.829V246.773C313.092 246.495 313.324 246.263 313.602 246.263L402.357 265.399ZM402.357 265.399C402.651 264.394 402.913 263.374 403.114 262.339L402.357 265.399ZM345.335 219.569C347.824 218.193 350.483 217.08 353.265 216.276C354.27 215.983 355.29 215.735 356.325 215.519V203.54C356.325 203.261 356.557 203.03 356.836 203.03H371.891C372.169 203.03 372.401 203.261 372.401 203.54V215.519C373.437 215.72 374.457 215.983 375.461 216.276C378.244 217.08 380.902 218.193 383.391 219.569C384.318 220.079 385.215 220.62 386.096 221.192L394.566 212.721C394.69 212.582 394.845 212.582 394.922 212.582C395.015 212.582 395.154 212.582 395.293 212.721L405.943 223.371C406.144 223.572 406.144 223.897 405.943 224.098L397.472 232.568C398.044 233.449 398.601 234.361 399.095 235.273C400.471 237.777 401.584 240.42 402.388 243.203C402.681 244.207 402.929 245.228 403.145 246.263H415.094L345.335 219.569ZM345.335 219.569C344.408 220.079 343.511 220.62 342.63 221.192L345.335 219.569ZM402.656 246.365L402.739 246.763H403.145H415.093C415.093 246.763 415.093 246.763 415.094 246.763C415.095 246.764 415.097 246.765 415.099 246.767C415.102 246.77 415.103 246.772 415.104 246.773C415.104 246.773 415.104 246.773 415.104 246.774V261.828C415.104 261.828 415.104 261.828 415.104 261.829C415.103 261.83 415.102 261.832 415.099 261.834C415.097 261.837 415.095 261.838 415.094 261.838C415.093 261.839 415.093 261.839 415.093 261.839H403.114H402.702L402.623 262.243C402.426 263.26 402.168 264.264 401.877 265.259L401.877 265.26C401.084 268.005 399.985 270.614 398.626 273.088L398.623 273.093C398.138 274.002 397.591 274.885 397.022 275.761L396.802 276.101L397.088 276.387L399.283 278.582L405.558 284.858C405.564 284.863 405.564 284.871 405.558 284.877L394.908 295.527C394.903 295.533 394.895 295.533 394.889 295.527L386.419 287.057L386.126 286.764L385.784 286.996C384.935 287.572 384.039 288.104 383.125 288.592L383.125 288.592L383.118 288.596C380.661 289.954 378.052 291.052 375.307 291.845L375.306 291.846C374.316 292.135 373.309 292.379 372.283 292.594L371.885 292.677V293.083V305.062C371.885 305.062 371.885 305.062 371.885 305.062C371.885 305.063 371.884 305.066 371.881 305.068C371.88 305.069 371.879 305.07 371.878 305.071C371.877 305.072 371.876 305.072 371.876 305.072L371.875 305.072C371.875 305.072 371.875 305.072 371.875 305.072H356.82C356.82 305.072 356.82 305.072 356.82 305.072C356.819 305.072 356.817 305.07 356.814 305.068C356.812 305.066 356.811 305.063 356.81 305.062C356.81 305.062 356.81 305.062 356.81 305.062V293.083V292.671L356.405 292.592C355.385 292.394 354.382 292.151 353.397 291.848L353.397 291.848L353.388 291.845C350.643 291.052 348.035 289.954 345.577 288.596L345.577 288.596L345.571 288.592C344.659 288.106 343.776 287.573 342.908 286.994L342.567 286.767L342.277 287.057L333.806 295.527C333.801 295.533 333.793 295.533 333.787 295.527L323.137 284.877C323.131 284.871 323.131 284.863 323.137 284.858L329.413 278.582L331.608 276.387L331.894 276.101L331.673 275.761C331.105 274.885 330.557 274.002 330.072 273.093L330.069 273.088C328.71 270.614 327.612 268.005 326.819 265.26L326.819 265.259C326.529 264.269 326.285 263.262 326.071 262.236L325.987 261.839H325.581H313.602C313.602 261.839 313.602 261.839 313.602 261.838C313.601 261.838 313.598 261.837 313.596 261.834C313.594 261.832 313.592 261.83 313.592 261.829C313.592 261.829 313.592 261.828 313.592 261.828V246.774C313.592 246.773 313.592 246.773 313.592 246.773C313.592 246.772 313.594 246.77 313.596 246.767C313.598 246.765 313.601 246.764 313.602 246.763C313.602 246.763 313.602 246.763 313.602 246.763H325.581H325.993L326.072 246.358C326.269 245.342 326.528 244.338 326.819 243.343L326.819 243.341C327.612 240.596 328.71 237.987 330.069 235.514L330.069 235.514L330.072 235.508C330.557 234.599 331.105 233.717 331.673 232.84L331.894 232.501L331.608 232.215L323.137 223.744C323.131 223.738 323.131 223.73 323.137 223.725L333.77 213.091C333.777 213.087 333.781 213.084 333.783 213.082C333.785 213.082 333.787 213.082 333.789 213.082C333.8 213.082 333.809 213.083 333.815 213.083L342.277 221.545L342.563 221.831L342.903 221.611C343.774 221.045 344.661 220.511 345.576 220.007L345.577 220.006C348.034 218.648 350.658 217.55 353.404 216.757L353.405 216.756C354.395 216.467 355.402 216.223 356.428 216.008L356.825 215.925V215.519V203.54C356.825 203.54 356.826 203.54 356.826 203.54C356.826 203.538 356.827 203.536 356.83 203.534C356.832 203.531 356.834 203.53 356.835 203.53C356.836 203.53 356.836 203.53 356.836 203.53H371.891C371.891 203.53 371.891 203.53 371.891 203.53C371.892 203.53 371.894 203.531 371.897 203.534C371.899 203.536 371.9 203.538 371.901 203.54L371.901 203.54L371.901 215.519V215.931L372.306 216.01C373.322 216.207 374.326 216.466 375.321 216.756L375.323 216.757C378.068 217.55 380.692 218.648 383.149 220.006L383.15 220.007C384.066 220.511 384.952 221.045 385.824 221.611L386.163 221.831L386.45 221.545L394.913 213.082C394.915 213.082 394.918 213.082 394.922 213.082C394.933 213.082 394.94 213.082 394.947 213.082L405.589 223.725C405.595 223.73 405.595 223.738 405.589 223.744L397.119 232.215L396.833 232.501L397.053 232.84C397.62 233.714 398.169 234.614 398.656 235.512L398.657 235.514C400.016 237.987 401.114 240.597 401.907 243.341L401.908 243.343C402.197 244.333 402.441 245.34 402.656 246.365ZM343.305 254.301C343.305 265.907 352.757 275.359 364.363 275.359C375.969 275.359 385.421 265.907 385.421 254.301C385.421 242.695 375.969 233.243 364.363 233.243C352.757 233.243 343.305 242.695 343.305 254.301Z" fill="#FFD467" stroke="#001624"/>
<mask id="path-11-inside-2_864_1183" fill="white">
<path d="M415.124 243.218H405.556C404.582 239.617 403.145 236.201 401.321 233.047L408.091 226.277C409.482 224.886 409.482 222.629 408.091 221.238L397.441 210.588C396.096 209.243 393.747 209.243 392.402 210.588L385.632 217.358C382.479 215.535 379.063 214.112 375.446 213.139V203.571C375.446 201.608 373.838 200 371.875 200H356.82C354.857 200 353.249 201.608 353.249 203.571V213.139C349.648 214.112 346.232 215.535 343.063 217.358L336.293 210.588C334.901 209.197 332.629 209.197 331.254 210.588L320.604 221.238C319.212 222.629 319.212 224.901 320.604 226.277L327.374 233.047C325.55 236.201 324.112 239.617 323.139 243.218H313.571C311.608 243.218 310 244.826 310 246.789V261.844C310 263.807 311.608 265.415 313.571 265.415H323.139C324.112 269.016 325.55 272.432 327.374 275.586L320.604 282.356C319.212 283.747 319.212 286.019 320.604 287.395L331.254 298.06C331.949 298.756 332.861 299.096 333.773 299.096C334.685 299.096 335.613 298.756 336.293 298.06L343.063 291.29C346.216 293.114 349.632 294.536 353.234 295.51V305.078C353.234 307.041 354.841 308.648 356.804 308.648H371.86C373.823 308.648 375.43 307.041 375.43 305.078V295.51C379.032 294.536 382.448 293.114 385.601 291.29L392.371 298.06C393.067 298.756 393.979 299.096 394.891 299.096C395.803 299.096 396.73 298.756 397.41 298.06L408.06 287.395C409.451 286.004 409.451 283.747 408.06 282.356L401.29 275.586C403.114 272.432 404.551 269.016 405.525 265.415H415.093C417.056 265.415 418.664 263.823 418.664 261.844V246.789C418.664 244.826 417.056 243.218 415.093 243.218H415.124ZM415.634 261.844C415.634 262.122 415.402 262.354 415.124 262.354H403.145C402.928 263.39 402.681 264.41 402.387 265.415C401.584 268.197 400.471 270.84 399.095 273.344C398.6 274.272 398.044 275.168 397.472 276.049L399.667 278.244L405.943 284.52C406.144 284.721 406.144 285.045 405.943 285.246L395.293 295.896C395.092 296.097 394.767 296.097 394.566 295.896L386.096 287.426C385.215 288.013 384.318 288.554 383.391 289.049C380.902 290.424 378.259 291.537 375.476 292.341C374.472 292.65 373.452 292.898 372.416 293.099V305.078C372.416 305.356 372.184 305.588 371.906 305.588H356.851C356.572 305.588 356.341 305.356 356.341 305.078V293.099C355.305 292.882 354.285 292.635 353.28 292.341C350.498 291.537 347.855 290.424 345.366 289.049C344.439 288.554 343.527 288.013 342.661 287.426L334.19 295.896C333.989 296.097 333.665 296.097 333.464 295.896L322.814 285.246C322.613 285.045 322.613 284.721 322.814 284.52L329.09 278.244L331.284 276.049C330.713 275.168 330.156 274.272 329.662 273.344C328.286 270.84 327.173 268.197 326.369 265.415C326.075 264.41 325.813 263.39 325.612 262.354H313.632C313.354 262.354 313.122 262.122 313.122 261.844V246.789C313.122 246.511 313.354 246.279 313.632 246.279H325.612C325.828 245.243 326.075 244.223 326.369 243.218C327.173 240.436 328.286 237.793 329.662 235.289C330.156 234.377 330.713 233.465 331.284 232.584L322.814 224.113C322.613 223.912 322.613 223.588 322.814 223.387L333.464 212.737C333.572 212.628 333.696 212.598 333.819 212.598C333.943 212.598 334.082 212.644 334.19 212.737L342.661 221.207C343.542 220.635 344.439 220.094 345.366 219.584C347.855 218.209 350.513 217.096 353.296 216.292C354.3 215.998 355.32 215.735 356.356 215.534V203.555C356.356 203.277 356.588 203.045 356.866 203.045H371.921C372.2 203.045 372.431 203.277 372.431 203.555V215.534C373.467 215.751 374.487 215.998 375.492 216.292C378.274 217.096 380.933 218.209 383.421 219.584C384.349 220.094 385.245 220.635 386.126 221.207L394.597 212.737C394.736 212.598 394.875 212.598 394.953 212.598C395.03 212.598 395.184 212.598 395.323 212.737L405.973 223.387C406.174 223.588 406.174 223.912 405.973 224.113L397.503 232.584C398.075 233.465 398.631 234.361 399.126 235.289C400.502 237.793 401.615 240.436 402.418 243.218C402.712 244.223 402.975 245.243 403.176 246.279H415.155C415.433 246.279 415.665 246.511 415.665 246.789V261.844H415.634Z"/>
</mask>
<path d="M415.124 243.218H405.556C404.582 239.617 403.145 236.201 401.321 233.047L408.091 226.277C409.482 224.886 409.482 222.629 408.091 221.238L397.441 210.588C396.096 209.243 393.747 209.243 392.402 210.588L385.632 217.358C382.479 215.535 379.063 214.112 375.446 213.139V203.571C375.446 201.608 373.838 200 371.875 200H356.82C354.857 200 353.249 201.608 353.249 203.571V213.139C349.648 214.112 346.232 215.535 343.063 217.358L336.293 210.588C334.901 209.197 332.629 209.197 331.254 210.588L320.604 221.238C319.212 222.629 319.212 224.901 320.604 226.277L327.374 233.047C325.55 236.201 324.112 239.617 323.139 243.218H313.571C311.608 243.218 310 244.826 310 246.789V261.844C310 263.807 311.608 265.415 313.571 265.415H323.139C324.112 269.016 325.55 272.432 327.374 275.586L320.604 282.356C319.212 283.747 319.212 286.019 320.604 287.395L331.254 298.06C331.949 298.756 332.861 299.096 333.773 299.096C334.685 299.096 335.613 298.756 336.293 298.06L343.063 291.29C346.216 293.114 349.632 294.536 353.234 295.51V305.078C353.234 307.041 354.841 308.648 356.804 308.648H371.86C373.823 308.648 375.43 307.041 375.43 305.078V295.51C379.032 294.536 382.448 293.114 385.601 291.29L392.371 298.06C393.067 298.756 393.979 299.096 394.891 299.096C395.803 299.096 396.73 298.756 397.41 298.06L408.06 287.395C409.451 286.004 409.451 283.747 408.06 282.356L401.29 275.586C403.114 272.432 404.551 269.016 405.525 265.415H415.093C417.056 265.415 418.664 263.823 418.664 261.844V246.789C418.664 244.826 417.056 243.218 415.093 243.218H415.124ZM415.634 261.844C415.634 262.122 415.402 262.354 415.124 262.354H403.145C402.928 263.39 402.681 264.41 402.387 265.415C401.584 268.197 400.471 270.84 399.095 273.344C398.6 274.272 398.044 275.168 397.472 276.049L399.667 278.244L405.943 284.52C406.144 284.721 406.144 285.045 405.943 285.246L395.293 295.896C395.092 296.097 394.767 296.097 394.566 295.896L386.096 287.426C385.215 288.013 384.318 288.554 383.391 289.049C380.902 290.424 378.259 291.537 375.476 292.341C374.472 292.65 373.452 292.898 372.416 293.099V305.078C372.416 305.356 372.184 305.588 371.906 305.588H356.851C356.572 305.588 356.341 305.356 356.341 305.078V293.099C355.305 292.882 354.285 292.635 353.28 292.341C350.498 291.537 347.855 290.424 345.366 289.049C344.439 288.554 343.527 288.013 342.661 287.426L334.19 295.896C333.989 296.097 333.665 296.097 333.464 295.896L322.814 285.246C322.613 285.045 322.613 284.721 322.814 284.52L329.09 278.244L331.284 276.049C330.713 275.168 330.156 274.272 329.662 273.344C328.286 270.84 327.173 268.197 326.369 265.415C326.075 264.41 325.813 263.39 325.612 262.354H313.632C313.354 262.354 313.122 262.122 313.122 261.844V246.789C313.122 246.511 313.354 246.279 313.632 246.279H325.612C325.828 245.243 326.075 244.223 326.369 243.218C327.173 240.436 328.286 237.793 329.662 235.289C330.156 234.377 330.713 233.465 331.284 232.584L322.814 224.113C322.613 223.912 322.613 223.588 322.814 223.387L333.464 212.737C333.572 212.628 333.696 212.598 333.819 212.598C333.943 212.598 334.082 212.644 334.19 212.737L342.661 221.207C343.542 220.635 344.439 220.094 345.366 219.584C347.855 218.209 350.513 217.096 353.296 216.292C354.3 215.998 355.32 215.735 356.356 215.534V203.555C356.356 203.277 356.588 203.045 356.866 203.045H371.921C372.2 203.045 372.431 203.277 372.431 203.555V215.534C373.467 215.751 374.487 215.998 375.492 216.292C378.274 217.096 380.933 218.209 383.421 219.584C384.349 220.094 385.245 220.635 386.126 221.207L394.597 212.737C394.736 212.598 394.875 212.598 394.953 212.598C395.03 212.598 395.184 212.598 395.323 212.737L405.973 223.387C406.174 223.588 406.174 223.912 405.973 224.113L397.503 232.584C398.075 233.465 398.631 234.361 399.126 235.289C400.502 237.793 401.615 240.436 402.418 243.218C402.712 244.223 402.975 245.243 403.176 246.279H415.155C415.433 246.279 415.665 246.511 415.665 246.789V261.844H415.634Z" fill="#221F20" stroke="#001624" stroke-width="2" mask="url(#path-11-inside-2_864_1183)"/>
<path d="M358.043 180.883H350.447H358.043Z" stroke="white" stroke-width="3" stroke-miterlimit="10" stroke-linecap="round"/>
<path d="M330.87 241.958L326.82 237.908L330.87 241.958Z" stroke="white" stroke-width="3" stroke-miterlimit="10" stroke-linecap="round"/>
<path d="M269.781 269.132V261.536V269.132Z" stroke="white" stroke-width="3" stroke-miterlimit="10" stroke-linecap="round"/>
<path d="M207.414 243.252L212.758 237.908L207.414 243.252Z" stroke="white" stroke-width="3" stroke-miterlimit="10" stroke-linecap="round"/>
<path d="M251.418 328.589C312.952 330.11 364.068 281.459 365.589 219.925C367.11 158.391 318.46 107.274 256.925 105.754C195.391 104.233 144.275 152.883 142.754 214.417C141.233 275.952 189.884 327.068 251.418 328.589Z" fill="#CCE2F0" stroke="#001624" stroke-width="6" stroke-miterlimit="10"/>
<path d="M251.737 315.729C197.393 314.386 154.272 269.079 155.615 214.735C156.958 160.392 202.265 117.27 256.609 118.613C283.773 119.285 308.15 130.948 325.554 149.234C342.958 167.519 353.402 192.428 352.731 219.607C351.387 273.951 306.08 317.072 251.737 315.729Z" fill="#CCE2F0" stroke="#001624" stroke-width="6" stroke-miterlimit="10" stroke-linecap="round"/>
<path d="M255.125 227.52C261.048 227.52 265.849 222.718 265.849 216.795C265.849 210.872 261.048 206.071 255.125 206.071C249.202 206.071 244.4 210.872 244.4 216.795C244.4 222.718 249.202 227.52 255.125 227.52Z" stroke="#001624" stroke-width="6" stroke-miterlimit="10" stroke-linecap="round"/>
<path d="M254.518 204.915L254.518 151.436" stroke="#001624" stroke-width="6" stroke-miterlimit="10" stroke-linecap="round"/>
<path d="M265.852 216.795H310.21" stroke="#001624" stroke-width="6" stroke-miterlimit="10" stroke-linecap="round"/>
<path d="M131.49 13V2" stroke="#4DA9FF" stroke-width="3" stroke-miterlimit="10" stroke-linecap="round"/>
<path d="M137.49 7H125.49" stroke="#4DA9FF" stroke-width="3" stroke-miterlimit="10" stroke-linecap="round"/>
<path d="M482.442 24.1582C482.994 20.7568 480.685 17.5518 477.283 16.9997C473.882 16.4476 470.677 18.7574 470.125 22.1588C469.573 25.5602 471.882 28.7652 475.284 29.3173C478.685 29.8695 481.89 27.5597 482.442 24.1582Z" stroke="#4EBB87" stroke-width="3" stroke-miterlimit="10" stroke-linecap="round"/>
<path d="M154 510V499" stroke="#4DA9FF" stroke-width="3" stroke-miterlimit="10" stroke-linecap="round"/>
<path d="M160 504H148" stroke="#4DA9FF" stroke-width="3" stroke-miterlimit="10" stroke-linecap="round"/>
<path d="M236.635 428.32C236.647 424.091 240.086 420.673 244.314 420.686C248.543 420.698 251.961 424.137 251.948 428.365C251.936 432.594 248.498 436.012 244.269 435.999C240.04 435.987 236.622 432.549 236.635 428.32Z" stroke="#FF8368" stroke-width="3" stroke-miterlimit="10" stroke-linecap="round"/>
<path d="M8.2793 269.439V258" stroke="#F9B8B8" stroke-width="3" stroke-miterlimit="10" stroke-linecap="round"/>
<path d="M14.5591 263.72H2" stroke="#F9B8B8" stroke-width="3" stroke-miterlimit="10" stroke-linecap="round"/>
</svg>
