<svg width="61" height="61" viewBox="0 0 61 61" fill="none" xmlns="http://www.w3.org/2000/svg">
<path d="M30.6257 56.8046C29.5455 56.8046 28.5679 55.8726 27.6208 54.9674L27.4915 54.8418C26.6318 54.0203 25.7494 53.1796 24.8023 52.9248C24.5474 52.8525 24.3078 52.8183 24.0377 52.8183C23.4672 52.8183 22.8015 52.9438 22.0978 53.0769C21.881 53.1188 21.6604 53.1606 21.436 53.1987C20.1542 53.5068 18.568 53.8871 17.4992 53.2937C16.3695 52.7004 15.9207 51.0762 15.5593 49.7677C15.2284 48.6114 14.8746 47.5121 14.209 46.8084C13.5433 46.1428 12.4175 45.7814 11.2269 45.4429L11.1584 45.4239C9.81193 45.0397 8.41597 44.6403 7.87965 43.6248C7.35855 42.6967 7.70849 41.3502 8.04702 40.0493L8.12308 39.7488C8.39315 38.68 8.67081 37.5769 8.43118 36.6868C8.19535 35.8424 7.44602 35.0588 6.65866 34.2334L6.51793 34.0851C5.41866 32.9896 4.36884 31.9398 4.51338 30.6694V30.5477C4.36884 29.281 5.54038 28.1057 6.4875 27.1624C7.4118 26.2799 8.18775 25.4888 8.43499 24.5721C8.67462 23.682 8.39695 22.5789 8.12689 21.5101L8.08125 21.3237C7.69708 19.8441 7.4194 18.5356 7.93671 17.6189C8.53389 16.5995 9.92984 16.204 11.2763 15.816C12.4859 15.4813 13.6232 15.1275 14.3155 14.4352C14.9621 13.7544 15.274 12.6513 15.6087 11.4836C16.0386 9.92787 16.4798 8.58136 17.5334 7.97277C18.549 7.35276 19.9906 7.6989 21.3828 8.03743L21.862 8.14394C22.889 8.36835 23.9502 8.60418 24.749 8.37976L24.787 8.36835C25.7304 8.15915 26.5634 7.387 27.4763 6.47412C28.5565 5.39387 29.5379 4.5 30.6371 4.5C31.7364 4.5 32.7634 5.52319 33.7562 6.51595C34.6272 7.387 35.4488 8.2086 36.3883 8.46344C37.2784 8.70308 38.3814 8.42541 39.4503 8.15535L39.6367 8.1097C40.9794 7.77497 42.3677 7.42504 43.3681 7.95755C44.338 8.50148 44.7336 9.84418 45.1178 11.1374L45.1406 11.2135C45.4753 12.4307 45.8329 13.568 46.5251 14.2603C47.1984 14.8955 48.3243 15.2568 49.5186 15.5992L49.8077 15.6867C51.0972 16.0822 52.4323 16.493 53.0295 17.5238C53.6495 18.5394 53.3033 19.981 52.9648 21.3732L52.8735 21.7459C52.5996 22.8642 52.3448 23.9178 52.5806 24.7927C52.8203 25.6828 53.6228 26.5234 54.3988 27.3374L54.6612 27.615C55.5855 28.585 56.5403 29.5853 56.4984 30.696V30.7036C56.5441 31.8143 55.5893 32.8147 54.665 33.7846L54.5395 33.9139C53.6076 34.8458 52.8279 35.6789 52.5806 36.6031C52.3752 37.4666 52.6187 38.5849 52.9344 39.8515C53.2463 41.1448 53.6304 42.7423 53.0371 43.8149C52.4437 44.9446 50.8195 45.3935 49.511 45.7548C48.3509 46.0857 47.2478 46.4015 46.5518 47.0595C45.8747 47.7365 45.521 48.8739 45.1862 50.0758L45.1406 50.2356C44.7602 51.5212 44.3685 52.8487 43.4289 53.3774C42.4856 53.9061 41.1391 53.5562 39.8383 53.2177L39.5378 53.1416C38.4689 52.8715 37.3659 52.5939 36.4758 52.8335C35.5363 53.0883 34.7147 53.9099 33.8436 54.7772C32.8585 55.7623 31.8391 56.7817 30.7018 56.7931C30.6752 56.7931 30.6485 56.7931 30.6219 56.7931L30.6257 56.8046ZM24.0377 51.3006C24.4523 51.3006 24.8251 51.3501 25.2093 51.4604C26.5177 51.8141 27.5904 52.8335 28.5337 53.735L28.6706 53.8681C29.3439 54.5109 30.1883 55.3135 30.6409 55.2831H30.6828C31.2001 55.2831 32.1054 54.374 32.7672 53.7122C33.7409 52.7384 34.7489 51.7304 36.0802 51.3729C37.3506 51.0305 38.6515 51.3577 39.9105 51.6734L40.2224 51.7532C41.0897 51.9777 42.2764 52.2896 42.6872 52.0575C43.0904 51.8331 43.4327 50.6616 43.6876 49.8096L43.7294 49.6612C44.1136 48.2691 44.5396 46.9264 45.4943 45.9716C46.4757 45.0435 47.8108 44.6594 49.104 44.2904C50.0245 44.0356 51.4053 43.6552 51.702 43.0922C52.0177 42.5217 51.683 41.1333 51.4623 40.2128C51.1809 39.0908 50.7967 37.5465 51.1124 36.2266C51.4623 34.9181 52.4209 33.8835 53.4555 32.8489L53.5696 32.731C54.2124 32.0577 55.0074 31.2247 54.9845 30.7607V30.658V30.639C55.0074 30.1749 54.2086 29.3381 53.5696 28.6687L53.3071 28.391C52.4399 27.4857 51.4585 26.4549 51.12 25.1921C50.7815 23.9407 51.101 22.6436 51.4053 21.3922L51.4966 21.0232C51.7362 20.0343 52.0329 18.8019 51.7324 18.3112C51.4281 17.7825 50.3364 17.4478 49.3741 17.1511L49.0964 17.0636C47.7309 16.6718 46.411 16.2458 45.4753 15.3595C44.5054 14.3934 44.0794 13.0507 43.6914 11.6433L43.6724 11.5825C43.4175 10.719 43.0676 9.53989 42.653 9.30786C42.1851 9.06063 40.9832 9.36111 40.017 9.60074L39.8344 9.64639C38.5792 9.9621 37.2784 10.2892 36.0041 9.94688C34.669 9.58933 33.6649 8.58136 32.6911 7.60761C32.0673 6.98381 31.1202 6.03669 30.6485 6.03669C30.0894 6.03669 29.0966 7.02945 28.5641 7.56197C27.7311 8.39497 26.5938 9.53228 25.1484 9.8632C23.9883 10.1789 22.7445 9.90884 21.5425 9.64259L21.0328 9.52848C20.0438 9.28885 18.8115 8.99216 18.317 9.29265C17.7008 9.65019 17.328 11.0081 17.077 11.9058C16.708 13.2028 16.3238 14.5417 15.411 15.5079C14.441 16.4778 13.1021 16.9038 11.6948 17.2918C10.74 17.5657 9.54567 17.9042 9.26039 18.3873C9.00935 18.8361 9.36689 20.2168 9.56088 20.9586L9.60652 21.1488C9.92223 22.4078 10.2493 23.7048 9.90701 24.9791C9.55708 26.2723 8.59474 27.2689 7.55253 28.2617C6.96296 28.8512 5.95118 29.863 6.03105 30.3955L6.03867 30.5096L6.03105 30.8368C5.95498 31.3807 6.83363 32.2593 7.60958 33.0353L7.76174 33.195C8.648 34.1231 9.56088 35.0817 9.90321 36.2989C10.2493 37.5769 9.92223 38.8778 9.60652 40.133L9.52665 40.4449C9.30223 41.3121 8.99413 42.4989 9.22236 42.9097C9.46579 43.3699 10.6906 43.7199 11.5844 43.9747L11.6529 43.9937C13.0451 44.3893 14.3687 44.8267 15.3045 45.7624C16.2211 46.7286 16.6586 48.0751 17.0275 49.3721C17.2824 50.2926 17.6627 51.6734 18.2257 51.9701C18.7962 52.2858 20.1846 51.951 21.1051 51.7304L21.1545 51.719C21.3789 51.681 21.6034 51.6391 21.8202 51.5973C22.5961 51.4528 23.3302 51.312 24.0415 51.312L24.0377 51.3006Z" fill="white"/>
<path d="M30.7552 47.3601C21.5541 47.3601 14.0723 39.8745 14.0723 30.6771C14.0723 21.4798 21.5579 13.9941 30.7552 13.9941C39.9526 13.9941 47.4382 21.4798 47.4382 30.6771C47.4382 39.8745 39.9526 47.3601 30.7552 47.3601ZM30.7552 15.5156C22.3947 15.5156 15.5937 22.3166 15.5937 30.6771C15.5937 39.0376 22.3947 45.8386 30.7552 45.8386C39.1158 45.8386 45.9168 39.0376 45.9168 30.6771C45.9168 22.3166 39.1158 15.5156 30.7552 15.5156Z" fill="white"/>
<path d="M29.3361 35.3092C29.1763 35.3092 29.0128 35.2597 28.8758 35.1532L25.3916 32.4831C25.0569 32.2282 24.9961 31.7489 25.2509 31.418C25.5058 31.0833 25.985 31.0224 26.3159 31.2773L29.8001 33.9475C30.1348 34.2023 30.1957 34.6816 29.9409 35.0125C29.7925 35.2065 29.5643 35.3092 29.3361 35.3092Z" fill="white"/>
<path d="M29.4191 35.3358C29.2213 35.3358 29.0235 35.2598 28.8751 35.1076C28.5823 34.8071 28.5899 34.3241 28.8904 34.0312L36.0033 27.1046C36.3037 26.8118 36.7868 26.8194 37.0797 27.1199C37.3726 27.4203 37.365 27.9034 37.0645 28.1963L29.9516 35.1228C29.8033 35.2674 29.6131 35.3396 29.4191 35.3396V35.3358Z" fill="white"/>
</svg>
